<?xml version="1.0" encoding="UTF-8"?>
<svg version="1.1" xmlns="http://www.w3.org/2000/svg" width="300" height="300">
<path d="M0 0 C99 0 198 0 300 0 C300 99 300 198 300 300 C201 300 102 300 0 300 C0 201 0 102 0 0 Z " fill="#000000" transform="translate(0,0)"/>
<path d="M0 0 C3.50004257 0.66357306 6.08975431 2.07964203 9.1328125 3.90625 C10.10347656 4.48503906 11.07414062 5.06382813 12.07421875 5.66015625 C13.58435547 6.57087891 13.58435547 6.57087891 15.125 7.5 C17.12734322 8.6983528 19.1299349 9.89629056 21.1328125 11.09375 C22.01855957 11.62677734 22.90430664 12.15980469 23.81689453 12.70898438 C25.18531968 13.51822528 26.57804129 14.28902064 28 15 C28 18.3 28 21.6 28 25 C25.69 25 23.38 25 21 25 C21.495 26.485 21.495 26.485 22 28 C23.98 28 25.96 28 28 28 C28 38.23 28 48.46 28 59 C26.02 59 24.04 59 22 59 C21.67 60.65 21.34 62.3 21 64 C24.465 63.505 24.465 63.505 28 63 C28 66.3 28 69.6 28 73 C26.54462432 73.83848804 25.08559627 74.67063934 23.625 75.5 C22.81289062 75.9640625 22.00078125 76.428125 21.1640625 76.90625 C19 78 19 78 17 78 C17 78.66 17 79.32 17 80 C16.16855469 80.39832031 15.33710938 80.79664063 14.48046875 81.20703125 C13.39378906 81.73683594 12.30710937 82.26664062 11.1875 82.8125 C10.10855469 83.33457031 9.02960938 83.85664063 7.91796875 84.39453125 C5.39105133 85.78484324 3.96104768 86.97970617 2 89 C0.00239695 89.34740923 -1.99787771 89.67966043 -4 90 C-6.83658587 91.31673833 -6.83658587 91.31673833 -9 93 C-9 93.66 -9 94.32 -9 95 C-11.08203125 96.5078125 -11.08203125 96.5078125 -13.8125 98.125 C-14.70582031 98.66382813 -15.59914062 99.20265625 -16.51953125 99.7578125 C-19 101 -19 101 -22 101 C-22 94.4 -22 87.8 -22 81 C-21.67 81 -21.34 81 -21 81 C-21 86.94 -21 92.88 -21 99 C-18.36 97.35 -15.72 95.7 -13 94 C-13.66 92.68 -14.32 91.36 -15 90 C-15.125 87.25 -15.125 87.25 -15 85 C-14.34 84.67 -13.68 84.34 -13 84 C-11.86649466 81.98330173 -11.86649466 81.98330173 -11 80 C-12.66342837 78.33657163 -14.7825709 78.63951903 -17.0625 78.4375 C-18.691875 78.293125 -20.32125 78.14875 -22 78 C-22 74.37 -22 70.74 -22 67 C-13.06440072 66.27549195 -13.06440072 66.27549195 -10.140625 68.265625 C-9.14077947 69.32731664 -8.17297351 70.42024099 -7.2421875 71.54296875 C-5.72666827 73.32060609 -4.09584844 74.02692751 -2 75 C-1.01 76.485 -1.01 76.485 0 78 C0.99 78 1.98 78 3 78 C2.525625 77.566875 2.05125 77.13375 1.5625 76.6875 C0 75 0 75 -1 72 C-1.7425 71.938125 -2.485 71.87625 -3.25 71.8125 C-6 71 -6 71 -7.5625 68.5 C-11.51529198 64.44585438 -16.55713224 65.09413765 -22 65 C-22 61.7 -22 58.4 -22 55 C-23.32 55 -24.64 55 -26 55 C-26 57.97 -26 60.94 -26 64 C-29.96 64 -33.92 64 -38 64 C-38.66 65.32 -39.32 66.64 -40 68 C-41.4375 70.25 -41.4375 70.25 -43 72 C-43.99 72 -44.98 72 -46 72 C-46.598125 71.34 -47.19625 70.68 -47.8125 70 C-49.89667046 67.70489364 -49.89667046 67.70489364 -53.125 67.625 C-56.12575284 67.719279 -56.12575284 67.719279 -58 70 C-58.24253813 72.21072977 -58.24253813 72.21072977 -58.125 74.625 C-58.09792969 75.85089844 -58.09792969 75.85089844 -58.0703125 77.1015625 C-58.04710938 77.72804688 -58.02390625 78.35453125 -58 79 C-54.9504546 79.28769296 -52.03796653 79.45107553 -49 79 C-47.17394457 76.67881567 -47.17394457 76.67881567 -46 74 C-44.33927151 73.31867549 -42.672233 72.65257873 -41 72 C-40.46375 71.13375 -39.9275 70.2675 -39.375 69.375 C-37 67 -37 67 -34.3046875 66.67578125 C-31.53436991 66.68640907 -28.7654432 66.83539029 -26 67 C-26 70.63 -26 74.26 -26 78 C-28.57161458 78.22786458 -31.14322917 78.45572917 -33.71484375 78.68359375 C-35.96159732 78.76044976 -35.96159732 78.76044976 -37 80 C-38.27875 80.04125 -39.5575 80.0825 -40.875 80.125 C-43.04865704 80.26630417 -43.04865704 80.26630417 -45 81 C-46.68781911 83.28903572 -47.19027995 85.21658734 -48 88 C-54.34646457 87.0380005 -59.32463501 83.79636242 -64.8125 80.625 C-65.88693359 80.05394531 -66.96136719 79.48289062 -68.06835938 78.89453125 C-71.11410087 77.11929906 -73.580634 75.56904684 -76 73 C-76.91294812 69.16011591 -76.71029231 65.86141529 -76 62 C-73.58203125 61.84375 -73.58203125 61.84375 -71 62 C-70.566875 62.825 -70.13375 63.65 -69.6875 64.5 C-68.8521875 65.7375 -68.8521875 65.7375 -68 67 C-65.2100443 67.47240286 -62.85323321 67.23387157 -60 67 C-59.835 66.360625 -59.67 65.72125 -59.5 65.0625 C-59.005 64.381875 -58.51 63.70125 -58 63 C-56.01635816 62.80488769 -54.03167184 62.61449792 -52.04296875 62.48046875 C-48.37877826 61.61871841 -47.04912285 59.00964918 -45 56 C-45.825 55.401875 -46.65 54.80375 -47.5 54.1875 C-48.325 53.465625 -49.15 52.74375 -50 52 C-50 51.01 -50 50.02 -50 49 C-48.35 49 -46.7 49 -45 49 C-45 49.66 -45 50.32 -45 51 C-43.02 50.505 -43.02 50.505 -41 50 C-41 49.34 -41 48.68 -41 48 C-43.31 47.34 -45.62 46.68 -48 46 C-48.33 46.33 -48.66 46.66 -49 47 C-50.66617115 47.04063832 -52.33388095 47.042721 -54 47 C-53.67 47.5775 -53.34 48.155 -53 48.75 C-52 51 -52 51 -52 55 C-53.98 55 -55.96 55 -58 55 C-58 54.01 -58 53.02 -58 52 C-60.31 52 -62.62 52 -65 52 C-65.33 52.99 -65.66 53.98 -66 55 C-67.98 55 -69.96 55 -72 55 C-71.46138629 50.69109029 -70.33923802 46.97992044 -68.765625 42.96875 C-67.74505015 40.34441468 -66.87013819 37.67734829 -66 35 C-63.36 35 -60.72 35 -58 35 C-57.34 36.98 -56.68 38.96 -56 41 C-54.02 41 -52.04 41 -50 41 C-49.87625 40.38125 -49.7525 39.7625 -49.625 39.125 C-49 37 -49 37 -47 35 C-44.94140625 34.69921875 -44.94140625 34.69921875 -42.5625 34.6875 C-41.78003906 34.67074219 -40.99757812 34.65398437 -40.19140625 34.63671875 C-37.48861203 35.08477555 -36.59994393 35.80329242 -35 38 C-35 38.99 -35 39.98 -35 41 C-37.97 40.67 -40.94 40.34 -44 40 C-44 40.99 -44 41.98 -44 43 C-42.906875 43.103125 -41.81375 43.20625 -40.6875 43.3125 C-37 44 -37 44 -35 45.25 C-34 47 -34 47 -34.25 49.625 C-35 52 -35 52 -36 53 C-33.03 53.33 -30.06 53.66 -27 54 C-27 49.05 -27 44.1 -27 39 C-28.98 39 -30.96 39 -33 39 C-33 37.68 -33 36.36 -33 35 C-29.37 35 -25.74 35 -22 35 C-22 31.04 -22 27.08 -22 23 C-20.123125 22.95875 -18.24625 22.9175 -16.3125 22.875 C-11.92947554 22.62414181 -11.92947554 22.62414181 -8.1953125 20.59765625 C-7.06825142 19.11007563 -6.02758782 17.55795573 -5 16 C-4.01 16 -3.02 16 -2 16 C-1.566875 16.66 -1.13375 17.32 -0.6875 18 C0.89217883 20.33102395 0.89217883 20.33102395 4 20.375 C7.17702205 20.2049729 7.17702205 20.2049729 10 18 C10.5 14.5 10.5 14.5 10 11 C6.28500878 8.52333918 4.39092112 8.45113486 0 9 C-1.69972025 11.30480288 -1.69972025 11.30480288 -3 14 C-4.63631892 15.04892238 -6.30485863 16.04906703 -8 17 C-8.556875 17.721875 -9.11375 18.44375 -9.6875 19.1875 C-13.48242721 22.16190241 -17.29166785 21.24780696 -22 21 C-22 17.37 -22 13.74 -22 10 C-18.7 10 -15.4 10 -12 10 C-12 9.34 -12 8.68 -12 8 C-10.1128125 7.87625 -10.1128125 7.87625 -8.1875 7.75 C-4.74011551 7.3312009 -4.74011551 7.3312009 -2.0625 5.125 C-0.88951457 2.90424596 -0.88951457 2.90424596 0 0 Z " fill="#101548" transform="translate(174,83)"/>
<path d="M0 0 C2.64 0 5.28 0 8 0 C8.66 1.98 9.32 3.96 10 6 C11.98 6 13.96 6 16 6 C16.12375 5.38125 16.2475 4.7625 16.375 4.125 C17 2 17 2 19 0 C21.05859375 -0.30078125 21.05859375 -0.30078125 23.4375 -0.3125 C24.61119141 -0.33763672 24.61119141 -0.33763672 25.80859375 -0.36328125 C28.51138797 0.08477555 29.40005607 0.80329242 31 3 C31 3.99 31 4.98 31 6 C28.03 5.67 25.06 5.34 22 5 C22 5.99 22 6.98 22 8 C23.093125 8.103125 24.18625 8.20625 25.3125 8.3125 C29 9 29 9 31 10.25 C32 12 32 12 31.75 14.625 C31 17 31 17 30 18 C32.97 18.33 35.94 18.66 39 19 C39 14.05 39 9.1 39 4 C37.02 4 35.04 4 33 4 C33 2.68 33 1.36 33 0 C38.61 0 44.22 0 50 0 C50 1.65 50 3.3 50 5 C48.35 5 46.7 5 45 5 C45 9.62 45 14.24 45 19 C47.31 19 49.62 19 52 19 C52 12.73 52 6.46 52 0 C64.46379368 -0.37021169 64.46379368 -0.37021169 66.91796875 1.32421875 C68 3 68 3 68 6 C69.65 6.33 71.3 6.66 73 7 C73.99 4.69 74.98 2.38 76 0 C78.64 0 81.28 0 84 0 C84.39832031 1.22976562 84.39832031 1.22976562 84.8046875 2.484375 C85.15789062 3.56203125 85.51109375 4.6396875 85.875 5.75 C86.22304687 6.81734375 86.57109375 7.8846875 86.9296875 8.984375 C87.88555633 11.90901365 87.88555633 11.90901365 89.1328125 14.140625 C90 16 90 16 90 20 C88.02 20 86.04 20 84 20 C84 19.01 84 18.02 84 17 C81.36 17 78.72 17 76 17 C76 17.99 76 18.98 76 20 C74.02 20 72.04 20 70 20 C70.33 18.02 70.66 16.04 71 14 C69.35 13.34 67.7 12.68 66 12 C67.30155006 16.07964281 67.30155006 16.07964281 69 20 C65.6875 20.25 65.6875 20.25 62 20 C60.0625 18 60.0625 18 59 16 C58.505 17.485 58.505 17.485 58 19 C58.99 19 59.98 19 61 19 C61 19.66 61 20.32 61 21 C61.66 21 62.32 21 63 21 C66 24.46153846 66 24.46153846 66 27 C59.07 27 52.14 27 45 27 C45 24.69 45 22.38 45 20 C43.35 20 41.7 20 40 20 C40 22.97 40 25.94 40 29 C36.04 29 32.08 29 28 29 C27.34 30.32 26.68 31.64 26 33 C24.5625 35.25 24.5625 35.25 23 37 C22.01 37 21.02 37 20 37 C19.401875 36.34 18.80375 35.68 18.1875 35 C16.10332954 32.70489364 16.10332954 32.70489364 12.875 32.625 C9.87424716 32.719279 9.87424716 32.719279 8 35 C7.75746187 37.21072977 7.75746187 37.21072977 7.875 39.625 C7.90207031 40.85089844 7.90207031 40.85089844 7.9296875 42.1015625 C7.95289062 42.72804687 7.97609375 43.35453125 8 44 C11.0495454 44.28769296 13.96203347 44.45107553 17 44 C18.82605543 41.67881567 18.82605543 41.67881567 20 39 C21.66072849 38.31867549 23.327767 37.65257873 25 37 C25.53625 36.13375 26.0725 35.2675 26.625 34.375 C29 32 29 32 31.6953125 31.67578125 C34.46563009 31.68640907 37.2345568 31.83539029 40 32 C40 35.63 40 39.26 40 43 C37.42838542 43.22786458 34.85677083 43.45572917 32.28515625 43.68359375 C30.03840268 43.76044976 30.03840268 43.76044976 29 45 C27.72125 45.04125 26.4425 45.0825 25.125 45.125 C22.95134296 45.26630417 22.95134296 45.26630417 21 46 C19.31218089 48.28903572 18.80972005 50.21658734 18 53 C11.65353543 52.0380005 6.67536499 48.79636242 1.1875 45.625 C0.11306641 45.05394531 -0.96136719 44.48289063 -2.06835938 43.89453125 C-5.11410087 42.11929906 -7.580634 40.56904684 -10 38 C-10.91294812 34.16011591 -10.71029231 30.86141529 -10 27 C-7.58203125 26.84375 -7.58203125 26.84375 -5 27 C-4.566875 27.825 -4.13375 28.65 -3.6875 29.5 C-3.130625 30.325 -2.57375 31.15 -2 32 C0.7899557 32.47240286 3.14676679 32.23387157 6 32 C6.165 31.360625 6.33 30.72125 6.5 30.0625 C6.995 29.381875 7.49 28.70125 8 28 C9.98364184 27.80488769 11.96832816 27.61449792 13.95703125 27.48046875 C17.62122174 26.61871841 18.95087715 24.00964918 21 21 C20.175 20.401875 19.35 19.80375 18.5 19.1875 C17.2625 18.1046875 17.2625 18.1046875 16 17 C16 16.01 16 15.02 16 14 C17.65 14 19.3 14 21 14 C21 14.66 21 15.32 21 16 C22.32 15.67 23.64 15.34 25 15 C25 14.34 25 13.68 25 13 C22.69 12.34 20.38 11.68 18 11 C17.67 11.33 17.34 11.66 17 12 C15.33382885 12.04063832 13.66611905 12.042721 12 12 C12.33 12.5775 12.66 13.155 13 13.75 C14 16 14 16 14 20 C12.02 20 10.04 20 8 20 C8 19.01 8 18.02 8 17 C5.69 17 3.38 17 1 17 C0.67 17.99 0.34 18.98 0 20 C-1.98 20 -3.96 20 -6 20 C-5.46138629 15.69109029 -4.33923802 11.97992044 -2.765625 7.96875 C-1.74505015 5.34441468 -0.87013819 2.67734829 0 0 Z " fill="#2D44D4" transform="translate(108,118)"/>
<path d="M0 0 C2.5 0.125 2.5 0.125 3.5 1.125 C3.54080783 3.12458364 3.54254356 5.12545254 3.5 7.125 C1.85 7.455 0.2 7.785 -1.5 8.125 C-1.5 8.785 -1.5 9.445 -1.5 10.125 C0.48 10.125 2.46 10.125 4.5 10.125 C4.83 9.465 5.16 8.805 5.5 8.125 C5.5 9.115 5.5 10.105 5.5 11.125 C6.13808594 11.11339844 6.77617187 11.10179688 7.43359375 11.08984375 C8.25988281 11.08082031 9.08617187 11.07179688 9.9375 11.0625 C10.76121094 11.05089844 11.58492187 11.03929688 12.43359375 11.02734375 C14.5 11.125 14.5 11.125 15.5 12.125 C15.57244053 14.14464199 15.58377188 16.16667124 15.5625 18.1875 C15.55347656 19.29222656 15.54445312 20.39695312 15.53515625 21.53515625 C15.52355469 22.38980469 15.51195312 23.24445313 15.5 24.125 C5.77830998 25.04438925 5.77830998 25.04438925 2.69140625 22.82421875 C1.375 21.1875 1.375 21.1875 -0.5 18.125 C-0.83 17.795 -1.16 17.465 -1.5 17.125 C-0.11615706 20.10558479 1.22769273 22.7351596 3.5 25.125 C6.45551526 25.82452489 6.45551526 25.82452489 9.6875 25.875 C11.31751953 25.96007812 11.31751953 25.96007812 12.98046875 26.046875 C14.22763672 26.08554688 14.22763672 26.08554688 15.5 26.125 C15.5 29.755 15.5 33.385 15.5 37.125 C0.26961751 38.19350122 0.26961751 38.19350122 -3.96484375 35.63671875 C-6.02933885 33.19869641 -7.5 31.38237534 -7.5 28.125 C-8.11488281 28.17140625 -8.72976562 28.2178125 -9.36328125 28.265625 C-11.79488193 28.37421323 -14.08190755 28.41638884 -16.5 28.125 C-17.54625409 26.82764493 -18.54701223 25.49233028 -19.5 24.125 C-22.19403631 23.44878607 -24.71023338 23.30793552 -27.5 23.125 C-28.49 25.6 -28.49 25.6 -29.5 28.125 C-31.15 28.125 -32.8 28.125 -34.5 28.125 C-35.45363548 24.49967148 -35.63635537 21.7251347 -34.5 18.125 C-30.8189747 14.81741205 -26.77531675 12.51937249 -22.43359375 10.17871094 C-20.57940906 9.16827393 -18.77263268 8.1050722 -16.96875 7.0078125 C-8.88955823 2.125 -8.88955823 2.125 -6.5 2.125 C-6.5 3.775 -6.5 5.425 -6.5 7.125 C-5.51 7.125 -4.52 7.125 -3.5 7.125 C-3.520625 6.155625 -3.54125 5.18625 -3.5625 4.1875 C-3.48059244 0.17402962 -3.48059244 0.17402962 0 0 Z " fill="#0A8ED0" transform="translate(132.5,79.875)"/>
<path d="M0 0 C0.33 0 0.66 0 1 0 C1 2.31 1 4.62 1 7 C1.58378418 6.99476318 2.16756836 6.98952637 2.76904297 6.98413086 C5.47101724 6.96305919 8.17297411 6.95024541 10.875 6.9375 C12.25171875 6.92493164 12.25171875 6.92493164 13.65625 6.91210938 C18.27865633 6.8958333 22.89369461 6.96625768 27.5078125 7.25390625 C28.30074707 7.29974854 29.09368164 7.34559082 29.91064453 7.39282227 C32.69451544 8.20182986 33.40372894 9.65608268 35 12 C37.0488648 12.48057715 37.0488648 12.48057715 39.1875 12.25 C41.0746875 12.12625 41.0746875 12.12625 43 12 C43.66 10.68 44.32 9.36 45 8 C46.65 8 48.3 8 50 8 C50 11.3 50 14.6 50 18 C48.54462432 18.83848804 47.08559627 19.67063934 45.625 20.5 C44.81289062 20.9640625 44.00078125 21.428125 43.1640625 21.90625 C41 23 41 23 39 23 C39 23.66 39 24.32 39 25 C38.16855469 25.39832031 37.33710938 25.79664063 36.48046875 26.20703125 C35.39378906 26.73683594 34.30710938 27.26664063 33.1875 27.8125 C32.10855469 28.33457031 31.02960938 28.85664063 29.91796875 29.39453125 C27.39105133 30.78484324 25.96104768 31.97970617 24 34 C22.00239695 34.34740923 20.00212229 34.67966043 18 35 C15.16341413 36.31673833 15.16341413 36.31673833 13 38 C13 38.66 13 39.32 13 40 C10.91796875 41.5078125 10.91796875 41.5078125 8.1875 43.125 C7.29417969 43.66382813 6.40085938 44.20265625 5.48046875 44.7578125 C3 46 3 46 0 46 C0 39.4 0 32.8 0 26 C0.33 26 0.66 26 1 26 C1 31.94 1 37.88 1 44 C4.96 41.525 4.96 41.525 9 39 C8.34 37.68 7.68 36.36 7 35 C6.875 32.25 6.875 32.25 7 30 C7.66 29.67 8.32 29.34 9 29 C10.13350534 26.98330173 10.13350534 26.98330173 11 25 C9.33657163 23.33657163 7.2174291 23.63951903 4.9375 23.4375 C3.308125 23.293125 1.67875 23.14875 0 23 C0 19.37 0 15.74 0 12 C8.93559928 11.27549195 8.93559928 11.27549195 11.859375 13.265625 C12.85922053 14.32731664 13.82702649 15.42024099 14.7578125 16.54296875 C16.27333173 18.32060609 17.90415156 19.02692751 20 20 C20.66 20.99 21.32 21.98 22 23 C22.99 23 23.98 23 25 23 C24.525625 22.566875 24.05125 22.13375 23.5625 21.6875 C22 20 22 20 21 17 C19.88625 16.9071875 19.88625 16.9071875 18.75 16.8125 C16 16 16 16 14.4375 13.5 C10.48470802 9.44585438 5.44286776 10.09413765 0 10 C0 6.7 0 3.4 0 0 Z " fill="#3F21DB" transform="translate(152,138)"/>
<path d="M0 0 C5.61 0 11.22 0 17 0 C17 1.65 17 3.3 17 5 C15.35 5 13.7 5 12 5 C12 9.62 12 14.24 12 19 C14.31 19 16.62 19 19 19 C19 12.73 19 6.46 19 0 C31.46379368 -0.37021169 31.46379368 -0.37021169 33.91796875 1.32421875 C35 3 35 3 35 6 C37.475 6.495 37.475 6.495 40 7 C40.99 4.69 41.98 2.38 43 0 C45.64 0 48.28 0 51 0 C51.39832031 1.22976562 51.39832031 1.22976562 51.8046875 2.484375 C52.15789062 3.56203125 52.51109375 4.6396875 52.875 5.75 C53.22304687 6.81734375 53.57109375 7.8846875 53.9296875 8.984375 C54.88555633 11.90901365 54.88555633 11.90901365 56.1328125 14.140625 C57 16 57 16 57 20 C55.02 20 53.04 20 51 20 C51 19.01 51 18.02 51 17 C48.36 17 45.72 17 43 17 C43 17.99 43 18.98 43 20 C41.02 20 39.04 20 37 20 C37.33 18.02 37.66 16.04 38 14 C35.525 13.01 35.525 13.01 33 12 C34.30155006 16.07964281 34.30155006 16.07964281 36 20 C32.6875 20.25 32.6875 20.25 29 20 C27.0625 18 27.0625 18 26 16 C25.67 16.99 25.34 17.98 25 19 C25.99 19 26.98 19 28 19 C28 19.66 28 20.32 28 21 C28.66 21 29.32 21 30 21 C33 24.46153846 33 24.46153846 33 27 C26.07 27 19.14 27 12 27 C12 24.69 12 22.38 12 20 C10.35 20 8.7 20 7 20 C6.67 14.72 6.34 9.44 6 4 C4.02 4 2.04 4 0 4 C0 2.68 0 1.36 0 0 Z " fill="#D0E7F5" transform="translate(141,118)"/>
<path d="M0 0 C7.4659249 -0.36717663 7.4659249 -0.36717663 10 1.375 C11 3 11 3 11 5 C10.34 5 9.68 5 9 5 C9.33 5.99 9.66 6.98 10 8 C10.59167969 7.91878906 11.18335937 7.83757812 11.79296875 7.75390625 C14.35342691 7.54923667 16.47481729 7.49749709 19 8 C21.24086044 10.04133177 22.63425709 12.30969236 24 15 C23.360625 15.433125 22.72125 15.86625 22.0625 16.3125 C19.73253997 17.91239177 19.73253997 17.91239177 19 21 C17.02 21.33 15.04 21.66 13 22 C12.34 19.69 11.68 17.38 11 15 C8.36 15 5.72 15 3 15 C2.7525 16.258125 2.505 17.51625 2.25 18.8125 C1.02166198 24.40232809 -0.94687375 29.66785174 -3 35 C-0.02934491 34.65772428 -0.02934491 34.65772428 3 34 C3.33 33.34 3.66 32.68 4 32 C6.31 32 8.62 32 11 32 C11 32.99 11 33.98 11 35 C12.98 35 14.96 35 17 35 C16.67 34.236875 16.34 33.47375 16 32.6875 C15 30 15 30 15 27 C19.25315564 25.3508172 21.6648225 24.50025375 25.9375 26.375 C27.4534375 27.179375 27.4534375 27.179375 29 28 C28.505 29.485 28.505 29.485 28 31 C26.68 31 25.36 31 24 31 C24 30.34 24 29.68 24 29 C22.35 29 20.7 29 19 29 C20.39332574 32.36720387 21.9789286 33.9859524 25 36 C20.44140496 42.6134163 20.44140496 42.6134163 16.9609375 43.546875 C16.27257812 43.59328125 15.58421875 43.6396875 14.875 43.6875 C10.35481766 44.05203083 9.9878824 44.91252152 7 48 C3.66840785 48.47594174 1.87797838 48.64385081 -0.875 46.625 C-2 45 -2 45 -2 43 C-1.34 43 -0.68 43 0 43 C0 41.68 0 40.36 0 39 C-2.31 39 -4.62 39 -7 39 C-7 28.77 -7 18.54 -7 8 C-1 8 -1 8 0.875 9.5 C1.24625 9.995 1.6175 10.49 2 11 C1.2575 9.6078125 1.2575 9.6078125 0.5 8.1875 C-1 5 -1 5 -1 2 C-0.67 1.34 -0.34 0.68 0 0 Z " fill="#182977" transform="translate(105,103)"/>
<path d="M0 0 C3.50004257 0.66357306 6.08975431 2.07964203 9.1328125 3.90625 C10.58880859 4.77443359 10.58880859 4.77443359 12.07421875 5.66015625 C13.58435547 6.57087891 13.58435547 6.57087891 15.125 7.5 C17.12734322 8.6983528 19.1299349 9.89629056 21.1328125 11.09375 C22.01855957 11.62677734 22.90430664 12.15980469 23.81689453 12.70898438 C25.18531968 13.51822528 26.57804129 14.28902064 28 15 C28 18.3 28 21.6 28 25 C26.35 25 24.7 25 23 25 C22.505 23.515 22.505 23.515 22 22 C18.99162213 21.41976779 16.06981966 20.94468793 13 21 C11.95884159 22.30144802 10.96113866 23.63838689 10 25 C8.04296875 25.2109375 8.04296875 25.2109375 5.6875 25.25 C3.24098567 25.29940377 3.24098567 25.29940377 1 26 C-0.39470683 27.83932975 -0.39470683 27.83932975 -1.5 30.0625 C-2.8515625 32.25390625 -2.8515625 32.25390625 -5 34 C-10.56042233 35.08852576 -16.39439993 34.44944678 -22 34 C-22 30.37 -22 26.74 -22 23 C-21.19175781 22.99742188 -20.38351563 22.99484375 -19.55078125 22.9921875 C-13.50120684 23.0070319 -13.50120684 23.0070319 -8.1953125 20.59765625 C-7.06825142 19.11007563 -6.02758782 17.55795573 -5 16 C-4.01 16 -3.02 16 -2 16 C-1.566875 16.66 -1.13375 17.32 -0.6875 18 C0.89217883 20.33102395 0.89217883 20.33102395 4 20.375 C7.17702205 20.2049729 7.17702205 20.2049729 10 18 C10.5 14.5 10.5 14.5 10 11 C6.28500878 8.52333918 4.39092112 8.45113486 0 9 C-1.69972025 11.30480288 -1.69972025 11.30480288 -3 14 C-4.63631892 15.04892238 -6.30485863 16.04906703 -8 17 C-8.556875 17.721875 -9.11375 18.44375 -9.6875 19.1875 C-13.48242721 22.16190241 -17.29166785 21.24780696 -22 21 C-22 17.37 -22 13.74 -22 10 C-18.7 10 -15.4 10 -12 10 C-12 9.34 -12 8.68 -12 8 C-10.1128125 7.87625 -10.1128125 7.87625 -8.1875 7.75 C-4.74011551 7.3312009 -4.74011551 7.3312009 -2.0625 5.125 C-0.88951457 2.90424596 -0.88951457 2.90424596 0 0 Z " fill="#1689E8" transform="translate(174,83)"/>
<path d="M0 0 C2.64 0 5.28 0 8 0 C8.66 1.98 9.32 3.96 10 6 C11.98 6 13.96 6 16 6 C16.12375 5.38125 16.2475 4.7625 16.375 4.125 C17 2 17 2 19 0 C21.05859375 -0.30078125 21.05859375 -0.30078125 23.4375 -0.3125 C24.61119141 -0.33763672 24.61119141 -0.33763672 25.80859375 -0.36328125 C28.51138797 0.08477555 29.40005607 0.80329242 31 3 C31 3.99 31 4.98 31 6 C28.03 5.67 25.06 5.34 22 5 C22 5.99 22 6.98 22 8 C23.093125 8.103125 24.18625 8.20625 25.3125 8.3125 C29 9 29 9 31 10.25 C32 12 32 12 31.8125 14.5625 C31 17 31 17 29 19 C24.92376426 20.04660107 21.2712567 20.62012522 17.4375 18.75 C16 17 16 17 16 14 C17.65 14 19.3 14 21 14 C21 14.66 21 15.32 21 16 C22.32 15.67 23.64 15.34 25 15 C25 14.34 25 13.68 25 13 C22.69 12.34 20.38 11.68 18 11 C17.67 11.33 17.34 11.66 17 12 C15.33382885 12.04063832 13.66611905 12.042721 12 12 C12.33 12.5775 12.66 13.155 13 13.75 C14 16 14 16 14 20 C12.02 20 10.04 20 8 20 C8 19.01 8 18.02 8 17 C5.69 17 3.38 17 1 17 C0.67 17.99 0.34 18.98 0 20 C-1.98 20 -3.96 20 -6 20 C-5.46138629 15.69109029 -4.33923802 11.97992044 -2.765625 7.96875 C-1.74505015 5.34441468 -0.87013819 2.67734829 0 0 Z " fill="#CAD8F0" transform="translate(108,118)"/>
<path d="M0 0 C1.06863281 0.01804687 2.13726562 0.03609375 3.23828125 0.0546875 C4.04652344 0.07789062 4.85476562 0.10109375 5.6875 0.125 C6.6775 2.435 7.6675 4.745 8.6875 7.125 C12.06186186 7.45880814 12.06186186 7.45880814 15.6875 7.125 C17.66989527 5.26375077 17.66989527 5.26375077 18.6875 3.125 C20.4375 3.3125 20.4375 3.3125 22.6875 4.125 C23.1825 4.95 23.6775 5.775 24.1875 6.625 C28.21032996 10.64782996 33.21020353 10.03026688 38.6875 10.125 C38.6875 13.755 38.6875 17.385 38.6875 21.125 C23.45711751 22.19350122 23.45711751 22.19350122 19.22265625 19.63671875 C17.15816115 17.19869641 15.6875 15.38237534 15.6875 12.125 C15.07261719 12.17140625 14.45773438 12.2178125 13.82421875 12.265625 C11.39261807 12.37421323 9.10559245 12.41638884 6.6875 12.125 C5.64124591 10.82764493 4.64048777 9.49233028 3.6875 8.125 C0.99346369 7.44878607 -1.52273338 7.30793552 -4.3125 7.125 C-4.9725 8.775 -5.6325 10.425 -6.3125 12.125 C-7.9625 12.125 -9.6125 12.125 -11.3125 12.125 C-11.3125 8.825 -11.3125 5.525 -11.3125 2.125 C-7.38392246 0.27368517 -4.32474888 -0.09504943 0 0 Z " fill="#3C33E9" transform="translate(109.3125,95.875)"/>
<path d="M0 0 C0.99 0 1.98 0 3 0 C3.45117188 0.66386719 3.90234375 1.32773438 4.3671875 2.01171875 C4.90601563 2.66785156 5.44484375 3.32398437 6 4 C8.49048448 4.30469149 8.49048448 4.30469149 11.125 3.8125 C12.45917969 3.63654297 12.45917969 3.63654297 13.8203125 3.45703125 C15.96822111 3.21409508 15.96822111 3.21409508 17 2 C19.69654854 1.92680379 22.36691458 1.90757463 25.0625 1.9375 C25.82111328 1.94201172 26.57972656 1.94652344 27.36132812 1.95117188 C29.24091871 1.9629932 31.12046899 1.98092922 33 2 C33 4.31 33 6.62 33 9 C31.35 9 29.7 9 28 9 C27.505 7.515 27.505 7.515 27 6 C23.99162213 5.41976779 21.06981966 4.94468793 18 5 C16.95884159 6.30144802 15.96113866 7.63838689 15 9 C13.04296875 9.2109375 13.04296875 9.2109375 10.6875 9.25 C8.24098567 9.29940377 8.24098567 9.29940377 6 10 C4.60529317 11.83932975 4.60529317 11.83932975 3.5 14.0625 C2.1484375 16.25390625 2.1484375 16.25390625 0 18 C-5.56042233 19.08852576 -11.39439993 18.44944678 -17 18 C-17 14.37 -17 10.74 -17 7 C-16.19175781 6.99742188 -15.38351563 6.99484375 -14.55078125 6.9921875 C-8.50120684 7.0070319 -8.50120684 7.0070319 -3.1953125 4.59765625 C-2.06825142 3.11007563 -1.02758782 1.55795573 0 0 Z " fill="#3447EC" transform="translate(169,99)"/>
<path d="M0 0 C5.61 0 11.22 0 17 0 C17 1.65 17 3.3 17 5 C15.35 5 13.7 5 12 5 C12 9.62 12 14.24 12 19 C14.31 19 16.62 19 19 19 C19 12.73 19 6.46 19 0 C23.29 0 27.58 0 32 0 C31.01 1.485 31.01 1.485 30 3 C27.6171875 3.29296875 27.6171875 3.29296875 24.875 3.1875 C23.96492188 3.16042969 23.05484375 3.13335937 22.1171875 3.10546875 C21.41851562 3.07066406 20.71984375 3.03585938 20 3 C20 3.99 20 4.98 20 6 C21.65 6 23.3 6 25 6 C25 5.34 25 4.68 25 4 C27.475 4.495 27.475 4.495 30 5 C29.67 5.99 29.34 6.98 29 8 C26.03 8 23.06 8 20 8 C20 11.63 20 15.26 20 19 C22.64 19 25.28 19 28 19 C28 19.66 28 20.32 28 21 C28.66 21 29.32 21 30 21 C33 24.46153846 33 24.46153846 33 27 C26.07 27 19.14 27 12 27 C12 24.69 12 22.38 12 20 C10.35 20 8.7 20 7 20 C6.67 14.72 6.34 9.44 6 4 C4.02 4 2.04 4 0 4 C0 2.68 0 1.36 0 0 Z " fill="#139AF6" transform="translate(141,118)"/>
<path d="M0 0 C3.3 0 6.6 0 10 0 C10 7.59 10 15.18 10 23 C5.85244772 22.17048954 4.04755598 21.69496491 0.6875 19.5625 C-0.00988281 19.13066406 -0.70726562 18.69882813 -1.42578125 18.25390625 C-1.94527344 17.84011719 -2.46476563 17.42632812 -3 17 C-3 16.34 -3 15.68 -3 15 C-2.34 15 -1.68 15 -1 15 C-1 14.34 -1 13.68 -1 13 C-3.31 13 -5.62 13 -8 13 C-8.66 11.02 -9.32 9.04 -10 7 C-10.33 8.32 -10.66 9.64 -11 11 C-11.99 10.67 -12.98 10.34 -14 10 C-13.34 10 -12.68 10 -12 10 C-11.87625 9.05125 -11.7525 8.1025 -11.625 7.125 C-11 4 -11 4 -9 2 C-7.08984375 1.62109375 -7.08984375 1.62109375 -4.9375 1.4375 C-1.23263383 1.44086552 -1.23263383 1.44086552 0 0 Z " fill="#16175B" transform="translate(138,161)"/>
<path d="M0 0 C4.09716296 0.81943259 5.96705942 1.29591263 9.3125 3.375 C10.00988281 3.79523438 10.70726562 4.21546875 11.42578125 4.6484375 C11.94527344 5.09445313 12.46476563 5.54046875 13 6 C13 6.99 13 7.98 13 9 C14.32 9 15.64 9 17 9 C19 12 19 12 19 16 C19.66 16 20.32 16 21 16 C19.125 19.875 19.125 19.875 18 21 C15.32941149 21.14115161 12.67567762 21.04247107 10 21 C10 21.66 10 22.32 10 23 C6.7 23 3.4 23 0 23 C0 15.41 0 7.82 0 0 Z " fill="#010A10" transform="translate(152,70)"/>
<path d="M0 0 C0.33 0 0.66 0 1 0 C1 5.94 1 11.88 1 18 C-2.96 18 -6.92 18 -11 18 C-11.66 19.32 -12.32 20.64 -13 22 C-14.4375 24.25 -14.4375 24.25 -16 26 C-16.99 26 -17.98 26 -19 26 C-19.556875 25.360625 -20.11375 24.72125 -20.6875 24.0625 C-24.00995828 21.0992264 -26.61195725 21.29253618 -31 21 C-31 19.68 -31 18.36 -31 17 C-29.824375 17 -28.64875 17 -27.4375 17 C-24.50724663 16.68005899 -23.3790203 16.45850793 -21.47265625 14.15234375 C-20.98667969 13.42144531 -20.50070313 12.69054687 -20 11.9375 C-18.25202435 9.63017214 -17.03065595 8.20677821 -14.13330078 7.62548828 C-9.40350369 7.28601878 -4.71679857 7.59230553 0 8 C0 5.36 0 2.72 0 0 Z " fill="#1889F0" transform="translate(147,129)"/>
<path d="M0 0 C0.33 0 0.66 0 1 0 C1 2.31 1 4.62 1 7 C1.58378418 6.99476318 2.16756836 6.98952637 2.76904297 6.98413086 C5.47101724 6.96305919 8.17297411 6.95024541 10.875 6.9375 C12.25171875 6.92493164 12.25171875 6.92493164 13.65625 6.91210938 C18.27865633 6.8958333 22.89369461 6.96625768 27.5078125 7.25390625 C28.30074707 7.29974854 29.09368164 7.34559082 29.91064453 7.39282227 C32.69451544 8.20182986 33.40372894 9.65608268 35 12 C37.0488648 12.48057715 37.0488648 12.48057715 39.1875 12.25 C41.0746875 12.12625 41.0746875 12.12625 43 12 C42 14 42 14 40.15234375 14.6328125 C39.42144531 14.79523438 38.69054687 14.95765625 37.9375 15.125 C37.20402344 15.29257813 36.47054687 15.46015625 35.71484375 15.6328125 C35.14894531 15.75398437 34.58304688 15.87515625 34 16 C33.566875 17.670625 33.566875 17.670625 33.125 19.375 C32 23 32 23 30 25 C26.375 25.125 26.375 25.125 23 25 C23.66 24.34 24.32 23.68 25 23 C24.525625 22.566875 24.05125 22.13375 23.5625 21.6875 C22 20 22 20 21 17 C19.88625 16.9071875 19.88625 16.9071875 18.75 16.8125 C16 16 16 16 14.4375 13.5 C10.48470802 9.44585438 5.44286776 10.09413765 0 10 C0 6.7 0 3.4 0 0 Z " fill="#196ED2" transform="translate(152,138)"/>
<path d="M0 0 C2.31 0.66 4.62 1.32 7 2 C6.34 4.31 5.68 6.62 5 9 C6.98 9 8.96 9 11 9 C11 8.01 11 7.02 11 6 C13.64 6 16.28 6 19 6 C19 6.99 19 7.98 19 9 C20.32 9.66 21.64 10.32 23 11 C23.36180905 18.35678392 23.36180905 18.35678392 21.875 21 C19.06836961 22.49686954 17.12242157 22.45535315 14 22 C13.319375 21.01 13.319375 21.01 12.625 20 C11.16877149 17.76484573 11.16877149 17.76484573 8.625 17.56640625 C7.75875 17.56511719 6.8925 17.56382812 6 17.5625 C3.3203125 17.40625 3.3203125 17.40625 1 17 C-1.14713594 14.53710877 -2 13.25966972 -2 10 C-2.66 10 -3.32 10 -4 10 C-4 9.34 -4 8.68 -4 8 C-4.99 8 -5.98 8 -7 8 C-7 6.02 -7 4.04 -7 2 C-3 6.75 -3 6.75 -3 9 C-1.02 8.67 0.96 8.34 3 8 C2.505 7.236875 2.01 6.47375 1.5 5.6875 C0 3 0 3 0 0 Z " fill="#031923" transform="translate(173,129)"/>
<path d="M0 0 C5 1 5 1 7 3 C11.28109582 3.47854408 11.28109582 3.47854408 14.9375 1.5 C18.02804556 -0.7476695 20.28406007 -0.46449249 24 0 C26.4375 2 26.4375 2 28 4 C27.5359375 4.8971875 27.5359375 4.8971875 27.0625 5.8125 C25.89790296 8.08956772 25.89790296 8.08956772 25 11 C23.02 11.33 21.04 11.66 19 12 C18.34 9.69 17.68 7.38 17 5 C14.36 5 11.72 5 9 5 C8.7525 6.258125 8.505 7.51625 8.25 8.8125 C7.02166198 14.40232809 5.05312625 19.66785174 3 25 C3.66 25.33 4.32 25.66 5 26 C4.34 26.66 3.68 27.32 3 28 C2.01 28 1.02 28 0 28 C0 18.76 0 9.52 0 0 Z " fill="#03050A" transform="translate(99,113)"/>
<path d="M0 0 C5.39401821 -0.26527958 5.39401821 -0.26527958 8 0 C9.625 1.5 9.625 1.5 11 3 C14.44406404 3.43966775 16.25152131 3.5283379 19.125 1.5 C19.74375 1.005 20.3625 0.51 21 0 C22.32 0 23.64 0 25 0 C25 8.91 25 17.82 25 27 C23.35 26.67 21.7 26.34 20 26 C20.66 25.67 21.32 25.34 22 25 C21.81824219 24.4652002 21.63648438 23.93040039 21.44921875 23.37939453 C20.62968956 20.96230875 19.81479267 18.54368634 19 16.125 C18.71382812 15.28324219 18.42765625 14.44148438 18.1328125 13.57421875 C17.86210937 12.76855469 17.59140625 11.96289062 17.3125 11.1328125 C17.06113281 10.38918457 16.80976563 9.64555664 16.55078125 8.87939453 C16 7 16 7 16 5 C13.36 5 10.72 5 8 5 C7.34 8.3 6.68 11.6 6 15 C5.34 14.01 4.68 13.02 4 12 C3.360625 11.87625 2.72125 11.7525 2.0625 11.625 C0 11 0 11 -1.875 8.6875 C-3 6 -3 6 -2.25 3.8125 C-1.8375 3.214375 -1.425 2.61625 -1 2 C-0.67 1.34 -0.34 0.68 0 0 Z " fill="#06070E" transform="translate(176,113)"/>
<path d="M0 0 C0 1.32 0 2.64 0 4 C-1.32 4 -2.64 4 -4 4 C-4 3.34 -4 2.68 -4 2 C-5.65 2 -7.3 2 -9 2 C-7.60667426 5.36720387 -6.0210714 6.9859524 -3 9 C-5.33150048 12.62993774 -7.31409254 15.55845281 -11.625 16.6875 C-14.09897803 16.91240709 -16.51675613 17.03435318 -19 17 C-19 15.35 -19 13.7 -19 12 C-23.455 11.01 -23.455 11.01 -28 10 C-26.4375 7.5 -26.4375 7.5 -24 5 C-20.25 4.6875 -20.25 4.6875 -17 5 C-17 5.99 -17 6.98 -17 8 C-15.02 8 -13.04 8 -11 8 C-11.33 7.236875 -11.66 6.47375 -12 5.6875 C-13 3 -13 3 -13 0 C-7.95531271 -2.21474076 -5.14089313 -1.85072153 0 0 Z " fill="#082B3B" transform="translate(133,130)"/>
<path d="M0 0 C0 6.93 0 13.86 0 21 C-3.3 21 -6.6 21 -10 21 C-9.90234375 18.49348958 -9.8046875 15.98697917 -9.70703125 13.48046875 C-10.04918998 10.58352485 -10.75393573 9.77444972 -13 8 C-11.78604047 4.35812142 -10.90993923 4.08254007 -7.625 2.3125 C-6.83351562 1.87550781 -6.04203125 1.43851562 -5.2265625 0.98828125 C-3 0 -3 0 0 0 Z " fill="#000408" transform="translate(148,70)"/>
<path d="M0 0 C1.21236328 0.12181641 1.21236328 0.12181641 2.44921875 0.24609375 C2.44921875 1.23609375 2.44921875 2.22609375 2.44921875 3.24609375 C-1.18078125 3.24609375 -4.81078125 3.24609375 -8.55078125 3.24609375 C-9.21078125 4.56609375 -9.87078125 5.88609375 -10.55078125 7.24609375 C-11.92578125 8.99609375 -11.92578125 8.99609375 -13.55078125 10.24609375 C-14.87078125 10.24609375 -16.19078125 10.24609375 -17.55078125 10.24609375 C-17.86015625 11.05046875 -18.16953125 11.85484375 -18.48828125 12.68359375 C-19.55078125 15.24609375 -19.55078125 15.24609375 -20.55078125 16.24609375 C-27.07620498 16.48338189 -27.07620498 16.48338189 -29.55078125 15.24609375 C-30.0703125 13.28515625 -30.0703125 13.28515625 -30.36328125 10.87109375 C-30.47285156 10.07960937 -30.58242187 9.288125 -30.6953125 8.47265625 C-30.55078125 6.24609375 -30.55078125 6.24609375 -29.24609375 4.48046875 C-26.63389986 2.57850269 -24.69183139 2.86147537 -21.55078125 3.24609375 C-19.17578125 4.62109375 -19.17578125 4.62109375 -17.55078125 6.24609375 C-17.55078125 6.90609375 -17.55078125 7.56609375 -17.55078125 8.24609375 C-14.05337084 7.08029028 -14.15880636 6.75602319 -12.61328125 3.68359375 C-9.4473964 -1.13405711 -5.30078881 -0.31331562 0 0 Z " fill="#02141C" transform="translate(145.55078125,146.75390625)"/>
<path d="M0 0 C2.41796875 -0.15625 2.41796875 -0.15625 5 0 C5.433125 0.825 5.86625 1.65 6.3125 2.5 C7.1478125 3.7375 7.1478125 3.7375 8 5 C10.7899557 5.47240286 13.14676679 5.23387157 16 5 C16.33 4.01 16.66 3.02 17 2 C17.33 2.99 17.66 3.98 18 5 C18.66 5.33 19.32 5.66 20 6 C19.34 6.66 18.68 7.32 18 8 C17.54188325 9.97235333 17.54188325 9.97235333 17.375 12.125 C17.25125 13.40375 17.1275 14.6825 17 16 C11.82516062 15.81584201 7.19007362 15.44375627 2.3125 13.625 C-0.93404526 9.9397324 -0.47268761 7.0269841 -0.2109375 2.265625 C-0.14132813 1.51796875 -0.07171875 0.7703125 0 0 Z " fill="#274FD2" transform="translate(98,145)"/>
<path d="M0 0 C1.64574566 -0.02688151 3.29161413 -0.04634123 4.9375 -0.0625 C5.85402344 -0.07410156 6.77054688 -0.08570312 7.71484375 -0.09765625 C10 0 10 0 11 1 C12.68183948 1.23287008 14.3712416 1.41264166 16.0625 1.5625 C17.691875 1.706875 19.32125 1.85125 21 2 C21 5.63 21 9.26 21 13 C11.04804199 13.71941865 11.04804199 13.71941865 8.15625 11.734375 C6.36015539 9.58323843 5 7.87519213 5 5 C3.68 5 2.36 5 1 5 C0.67 3.35 0.34 1.7 0 0 Z " fill="#1E7EF3" transform="translate(127,91)"/>
<path d="M0 0 C2.31 0 4.62 0 7 0 C7.26554688 0.81984375 7.53109375 1.6396875 7.8046875 2.484375 C8.15789062 3.56203125 8.51109375 4.6396875 8.875 5.75 C9.22304687 6.81734375 9.57109375 7.8846875 9.9296875 8.984375 C10.88555633 11.90901365 10.88555633 11.90901365 12.1328125 14.140625 C13 16 13 16 13 20 C11.02 20 9.04 20 7 20 C7 19.01 7 18.02 7 17 C4.36 17 1.72 17 -1 17 C-1 17.99 -1 18.98 -1 20 C-2.98 20 -4.96 20 -7 20 C-6 17 -6 17 -4 15.9375 C-3.34 15.628125 -2.68 15.31875 -2 15 C-1.67 14.34 -1.34 13.68 -1 13 C0.98 13 2.96 13 5 13 C4.34 11.35 3.68 9.7 3 8 C2.34 8.66 1.68 9.32 1 10 C-0.60725635 6.78548731 -0.05748185 3.56387464 0 0 Z " fill="#EFF2F4" transform="translate(185,118)"/>
<path d="M0 0 C2.64 0 5.28 0 8 0 C8.22036864 3.85645121 7.60355101 6.49223216 6 10 C5.34 9.34 4.68 8.68 4 8 C3.34 9.65 2.68 11.3 2 13 C2.763125 12.938125 3.52625 12.87625 4.3125 12.8125 C7.53047788 13.03701008 7.93507957 13.66574212 10 16 C12.09989652 17.17574711 12.09989652 17.17574711 14 18 C14 18.66 14 19.32 14 20 C12.02 20 10.04 20 8 20 C8 19.01 8 18.02 8 17 C5.69 17 3.38 17 1 17 C0.67 17.99 0.34 18.98 0 20 C-1.98 20 -3.96 20 -6 20 C-5.46138629 15.69109029 -4.33923802 11.97992044 -2.765625 7.96875 C-1.74505015 5.34441468 -0.87013819 2.67734829 0 0 Z " fill="#ECEFF0" transform="translate(108,118)"/>
<path d="M0 0 C0.33 0 0.66 0 1 0 C1 5.94 1 11.88 1 18 C3.64 16.35 6.28 14.7 9 13 C8.34 11.68 7.68 10.36 7 9 C6.875 6.25 6.875 6.25 7 4 C7.66 3.67 8.32 3.34 9 3 C9.33 2.01 9.66 1.02 10 0 C11.43655854 -0.08131463 12.8744483 -0.13933559 14.3125 -0.1875 C15.51326172 -0.23970703 15.51326172 -0.23970703 16.73828125 -0.29296875 C19 0 19 0 20.79296875 1.26171875 C22 3 22 3 22 7 C22.66 7.33 23.32 7.66 24 8 C23.113125 8.103125 22.22625 8.20625 21.3125 8.3125 C17.9173245 9.01715907 15.78057902 9.9554566 13 12 C13 12.66 13 13.32 13 14 C10.91796875 15.5078125 10.91796875 15.5078125 8.1875 17.125 C7.29417969 17.66382813 6.40085938 18.20265625 5.48046875 18.7578125 C3 20 3 20 0 20 C0 13.4 0 6.8 0 0 Z " fill="#041420" transform="translate(152,164)"/>
<path d="M0 0 C3.3 0 6.6 0 10 0 C10.33 0.33 10.66 0.66 11 1 C13.32817964 1.36760731 15.6618385 1.70241581 18 2 C18 2.33 18 2.66 18 3 C15.36 3 12.72 3 10 3 C9.67 4.32 9.34 5.64 9 7 C8.34 7 7.68 7 7 7 C7.33 8.093125 7.66 9.18625 8 10.3125 C9 14 9 14 9 17 C3.74285714 21 3.74285714 21 1 21 C0.67 14.07 0.34 7.14 0 0 Z " fill="#01030A" transform="translate(152,161)"/>
<path d="M0 0 C1.65 0 3.3 0 5 0 C5 3.3 5 6.6 5 10 C-4.45454545 15.81818182 -4.45454545 15.81818182 -11 15 C-12 14 -12 14 -12.0625 10.9375 C-12.041875 9.968125 -12.02125 8.99875 -12 8 C-11.07767578 7.76216797 -11.07767578 7.76216797 -10.13671875 7.51953125 C-4.85107169 6.15178377 -4.85107169 6.15178377 -1.25 2.3125 C-0.8375 1.549375 -0.425 0.78625 0 0 Z " fill="#226CE8" transform="translate(197,146)"/>
<path d="M0 0 C0.33 0 0.66 0 1 0 C1.02763357 1.35404497 1.04667422 2.70826555 1.0625 4.0625 C1.07410156 4.81660156 1.08570313 5.57070312 1.09765625 6.34765625 C0.97851072 9.58364877 0.45794854 12.79436022 0 16 C-6.6 16 -13.2 16 -20 16 C-17 9 -17 9 -16 8 C-13.30345146 7.92680379 -10.63308542 7.90757463 -7.9375 7.9375 C-7.17888672 7.94201172 -6.42027344 7.94652344 -5.63867188 7.95117188 C-3.75908129 7.9629932 -1.87953101 7.98092922 0 8 C0 5.36 0 2.72 0 0 Z " fill="#129BF6" transform="translate(147,129)"/>
<path d="M0 0 C1.06863281 0.01804687 2.13726562 0.03609375 3.23828125 0.0546875 C4.04652344 0.07789062 4.85476562 0.10109375 5.6875 0.125 C6.6775 2.765 7.6675 5.405 8.6875 8.125 C7.3675 8.455 6.0475 8.785 4.6875 9.125 C4.3575 8.795 4.0275 8.465 3.6875 8.125 C2.34002916 7.89424918 0.98372435 7.71346937 -0.375 7.5625 C-1.674375 7.418125 -2.97375 7.27375 -4.3125 7.125 C-4.9725 8.775 -5.6325 10.425 -6.3125 12.125 C-7.9625 12.125 -9.6125 12.125 -11.3125 12.125 C-11.3125 8.825 -11.3125 5.525 -11.3125 2.125 C-7.38392246 0.27368517 -4.32474888 -0.09504943 0 0 Z " fill="#3047E0" transform="translate(109.3125,95.875)"/>
<path d="M0 0 C0.33 0 0.66 0 1 0 C0.67 5.61 0.34 11.22 0 17 C-3.3 17 -6.6 17 -10 17 C-9.34 16.01 -8.68 15.02 -8 14 C-7.68098409 11.42410136 -7.68098409 11.42410136 -9 9 C-11.5640151 7.63432459 -14.20849257 6.78213078 -17 6 C-17 5.01 -17 4.02 -17 3 C-14.03 3.33 -11.06 3.66 -8 4 C-7.67 3.34 -7.34 2.68 -7 2 C-7 2.66 -7 3.32 -7 4 C-6.34 3.34 -5.68 2.68 -5 2 C-2.375 1.875 -2.375 1.875 0 2 C0 1.34 0 0.68 0 0 Z " fill="#050F1E" transform="translate(147,120)"/>
<path d="M0 0 C2.375 1.3125 2.375 1.3125 4 3 C4 3.99 4 4.98 4 6 C4.99 6.33 5.98 6.66 7 7 C6.01 7 5.02 7 4 7 C3.690625 7.804375 3.38125 8.60875 3.0625 9.4375 C2 12 2 12 1 13 C-2.375 13.3125 -2.375 13.3125 -6 13 C-8.66266871 10.76679398 -8.95347082 9.3799883 -9.375 5.9375 C-9 3 -9 3 -7.875 1.125 C-5.10703881 -0.53577671 -3.16909182 -0.38805206 0 0 Z " fill="#041524" transform="translate(124,91)"/>
<path d="M0 0 C5.34488673 0.75015954 5.34488673 0.75015954 7.5625 3.5 C8.0625 7 8.0625 7 7.5625 10.5 C5.33978061 13.15016543 3.9166854 13.44940209 0.5 13.9375 C-2.4375 13.5 -2.4375 13.5 -4.3125 11.5 C-4.68375 10.84 -5.055 10.18 -5.4375 9.5 C-4.7775 9.5 -4.1175 9.5 -3.4375 9.5 C-3.7675 8.51 -4.0975 7.52 -4.4375 6.5 C-5.0975 6.17 -5.7575 5.84 -6.4375 5.5 C-4.79524536 1.63587143 -4.28197491 0.62283271 0 0 Z " fill="#051D2F" transform="translate(177.4375,90.5)"/>
<path d="M0 0 C5.61 0 11.22 0 17 0 C17 1.32 17 2.64 17 4 C15.02 4 13.04 4 11 4 C11 9.28 11 14.56 11 20 C9.68 20 8.36 20 7 20 C6.67 14.72 6.34 9.44 6 4 C4.02 4 2.04 4 0 4 C0 2.68 0 1.36 0 0 Z " fill="#F4F7FC" transform="translate(141,118)"/>
<path d="M0 0 C5.28 0 10.56 0 16 0 C16 0.33 16 0.66 16 1 C13.36 1 10.72 1 8 1 C8 7.27 8 13.54 8 20 C5.69 20 3.38 20 1 20 C1 15.38 1 10.76 1 6 C2.65 6 4.3 6 6 6 C6 4.35 6 2.7 6 1 C4.02 1 2.04 1 0 1 C0 0.67 0 0.34 0 0 Z " fill="#11133E" transform="translate(152,117)"/>
<path d="M0 0 C3.3 0 6.6 0 10 0 C10 0.33 10 0.66 10 1 C7.03 1 4.06 1 1 1 C1 1.66 1 2.32 1 3 C6.94 3 12.88 3 19 3 C17.35 4.32 15.7 5.64 14 7 C13.443125 7.7425 12.88625 8.485 12.3125 9.25 C8.50172112 12.13383267 4.67036553 11.24580871 0 11 C0 7.37 0 3.74 0 0 Z " fill="#2A52DE" transform="translate(152,93)"/>
<path d="M0 0 C3.58795309 -0.39866145 6.1089175 -0.38842058 9.4375 1.0625 C11 3 11 3 11.4375 6.5 C11 10 11 10 9.9375 11.9375 C6.98831309 13.55479605 4.29132441 13.18630138 1 13 C1.66 12.34 2.32 11.68 3 11 C2.54625 10.608125 2.0925 10.21625 1.625 9.8125 C-0.3314831 7.63026885 -1.22359198 5.82330189 -2 3 C-1.34 2.01 -0.68 1.02 0 0 Z " fill="#061125" transform="translate(174,150)"/>
<path d="M0 0 C3.96 0 7.92 0 12 0 C12 3.63 12 7.26 12 11 C9.24763726 11.16225719 6.50482524 11.2809328 3.75 11.375 C2.97269531 11.42527344 2.19539062 11.47554687 1.39453125 11.52734375 C0.64042969 11.54667969 -0.11367187 11.56601563 -0.890625 11.5859375 C-1.92751465 11.63306885 -1.92751465 11.63306885 -2.98535156 11.68115234 C-5 11 -5 11 -9 5 C-2.73 5 3.54 5 10 5 C10.33 3.68 10.66 2.36 11 1 C7.37 1 3.74 1 0 1 C0 0.67 0 0.34 0 0 Z " fill="#3F18D1" transform="translate(136,106)"/>
<path d="M0 0 C0.33 0 0.66 0 1 0 C1.33 2.64 1.66 5.28 2 8 C2.99 7.67 3.98 7.34 5 7 C5.33 8.98 5.66 10.96 6 13 C4.02 13 2.04 13 0 13 C-0.33 13.99 -0.66 14.98 -1 16 C-3.0625 16.6875 -3.0625 16.6875 -5 17 C-5 16.01 -5 15.02 -5 14 C-7.475 13.01 -7.475 13.01 -10 12 C-10.042721 10.33388095 -10.04063832 8.66617115 -10 7 C-9 6 -9 6 -6.5625 5.9375 C-5.2940625 5.9684375 -5.2940625 5.9684375 -4 6 C-3.34 6 -2.68 6 -2 6 C-1.34 4.02 -0.68 2.04 0 0 Z " fill="#43E9EA" transform="translate(184,118)"/>
<path d="M0 0 C3.63 0 7.26 0 11 0 C11 0.33 11 0.66 11 1 C7.7 1 4.4 1 1 1 C1 2.65 1 4.3 1 6 C1.94875 5.835 2.8975 5.67 3.875 5.5 C8.52695654 4.84358895 13.32096137 4.49531393 18 5 C18.66 5.66 19.32 6.32 20 7 C19.04296875 8.984375 19.04296875 8.984375 17 11 C14.09705206 11.52039056 11.24999543 11.37530743 8.3125 11.25 C7.51521484 11.23195313 6.71792969 11.21390625 5.89648438 11.1953125 C3.93047551 11.14822247 1.96508506 11.07647899 0 11 C0 7.37 0 3.74 0 0 Z " fill="#4412D7" transform="translate(152,106)"/>
<path d="M0 0 C5 2 5 2 8 4 C7.87431641 5.13888672 7.87431641 5.13888672 7.74609375 6.30078125 C7.64425781 7.29464844 7.54242188 8.28851563 7.4375 9.3125 C7.33308594 10.29863281 7.22867188 11.28476563 7.12109375 12.30078125 C6.83397473 15.09930347 6.83397473 15.09930347 8 18 C5.36 18 2.72 18 0 18 C0 12.06 0 6.12 0 0 Z " fill="#01060C" transform="translate(153,72)"/>
<path d="M0 0 C0.66 1.32 1.32 2.64 2 4 C4.31 4 6.62 4 9 4 C9.38218767 5.65614657 9.71395102 7.32457024 10 9 C9 10 9 10 6.4375 10.0625 C5.633125 10.041875 4.82875 10.02125 4 10 C4.66 11.98 5.32 13.96 6 16 C3.08482708 14.92598892 1.22189824 14.22189824 -1 12 C-3.57061311 11.35232207 -3.57061311 11.35232207 -6 11 C-4.375 5.25 -4.375 5.25 -1 3 C-0.67 2.01 -0.34 1.02 0 0 Z " fill="#0BEEEE" transform="translate(116,120)"/>
<path d="M0 0 C7.26153846 -0.61538462 7.26153846 -0.61538462 11 2.5 C11.66 3.325 12.32 4.15 13 5 C11.35 5 9.7 5 8 5 C7.34 8.3 6.68 11.6 6 15 C5.34 14.01 4.68 13.02 4 12 C3.360625 11.87625 2.72125 11.7525 2.0625 11.625 C0 11 0 11 -1.875 8.6875 C-3 6 -3 6 -2.25 3.8125 C-1.8375 3.214375 -1.425 2.61625 -1 2 C-0.67 1.34 -0.34 0.68 0 0 Z " fill="#010005" transform="translate(176,113)"/>
<path d="M0 0 C0 0.33 0 0.66 0 1 C-0.62648437 1.03738281 -1.25296875 1.07476562 -1.8984375 1.11328125 C-2.71570313 1.17902344 -3.53296875 1.24476562 -4.375 1.3125 C-5.59316406 1.39951172 -5.59316406 1.39951172 -6.8359375 1.48828125 C-9.37921338 1.82990528 -9.37921338 1.82990528 -11 5 C-13.06298828 5.34057617 -13.06298828 5.34057617 -15.5703125 5.29296875 C-16.46621094 5.28330078 -17.36210937 5.27363281 -18.28515625 5.26367188 C-19.69087891 5.2259668 -19.69087891 5.2259668 -21.125 5.1875 C-22.06988281 5.17396484 -23.01476562 5.16042969 -23.98828125 5.14648438 C-26.32608779 5.11106306 -28.66276237 5.06167271 -31 5 C-31 3.35 -31 1.7 -31 0 C-20.54080611 -1.27053115 -10.45919389 -1.27053115 0 0 Z " fill="#3C33E9" transform="translate(184,107)"/>
<path d="M0 0 C7.07487342 -0.64317031 11.09493185 1.17264102 17 5 C17 5.99 17 6.98 17 8 C14.39590255 8.16781295 11.7917318 8.33429651 9.1875 8.5 C8.08051758 8.57154297 8.08051758 8.57154297 6.95117188 8.64453125 C3.96175412 8.83390613 0.99625426 9 -2 9 C-1.67 8.67 -1.34 8.34 -1 8 C-0.76924918 6.65252916 -0.58846937 5.29622435 -0.4375 3.9375 C-0.293125 2.638125 -0.14875 1.33875 0 0 Z " fill="#266DF3" transform="translate(185,93)"/>
<path d="M0 0 C0.33 0.99 0.66 1.98 1 3 C2.43655854 3.08131463 3.8744483 3.13933559 5.3125 3.1875 C6.11300781 3.22230469 6.91351563 3.25710937 7.73828125 3.29296875 C10.47851584 2.93801608 11.29171079 2.10633718 13 0 C14.6442351 4.93270529 13.18615592 7.54024193 11 12 C5.9738891 11.46323088 2.37760591 9.05581499 -1.8125 6.4375 C-2.50537109 6.01275391 -3.19824219 5.58800781 -3.91210938 5.15039062 C-5.61216951 4.10690544 -7.30665476 3.05434704 -9 2 C-6.01386614 1.24070528 -3.02485781 0.5881668 0 0 Z " fill="#3A27D6" transform="translate(115,159)"/>
<path d="M0 0 C5.14808788 1.02961758 7.62920538 2.34324249 12 5 C11.38722388 7.96175123 10.74627478 9.38058783 9 12 C9.3241369 15.32240324 9.60776303 16.60776303 12 19 C13.98821313 19.39764263 15.98944339 19.73775349 18 20 C18 20.33 18 20.66 18 21 C15.36 21 12.72 21 10 21 C10 21.66 10 22.32 10 23 C6.7 23 3.4 23 0 23 C0 15.41 0 7.82 0 0 Z M1 2 C1 7.94 1 13.88 1 20 C3.64 20 6.28 20 9 20 C8.87431641 19.11248047 8.87431641 19.11248047 8.74609375 18.20703125 C8.19110576 13.90060543 7.76773348 10.24447356 9 6 C5.33019796 3.08828211 5.33019796 3.08828211 1 2 Z " fill="#0D3C70" transform="translate(152,70)"/>
<path d="M0 0 C2.4294516 3.6441774 2.16179575 5.71241272 2 10 C-1.06890187 11.53445094 -3.70094266 10.54984289 -7 10 C-7.66 8.02 -8.32 6.04 -9 4 C-9.33 5.32 -9.66 6.64 -10 8 C-10.99 7.67 -11.98 7.34 -13 7 C-12.34 7 -11.68 7 -11 7 C-10.67 5.02 -10.34 3.04 -10 1 C-6.457201 -0.180933 -3.71640139 -0.27028374 0 0 Z " fill="#001114" transform="translate(137,164)"/>
<path d="M0 0 C8.55693348 -0.91319053 8.55693348 -0.91319053 12 1.265625 C13.625 2.875 13.625 2.875 16 6 C16 6.66 16 7.32 16 8 C11.05 8 6.1 8 1 8 C0.67 5.36 0.34 2.72 0 0 Z " fill="#2564E7" transform="translate(152,150)"/>
<path d="M0 0 C7.4659249 -0.36717663 7.4659249 -0.36717663 10 1.375 C11 3 11 3 11 5 C10.34 5 9.68 5 9 5 C9 6.98 9 8.96 9 11 C7 12 7 12 4.5625 11.9375 C2 11 2 11 0.1875 8.125 C-1 5 -1 5 -1 2 C-0.67 1.34 -0.34 0.68 0 0 Z " fill="#041926" transform="translate(105,103)"/>
<path d="M0 0 C2.31 0 4.62 0 7 0 C7 5.94 7 11.88 7 18 C4.36 16.68 1.72 15.36 -1 14 C-0.649375 12.80375 -0.29875 11.6075 0.0625 10.375 C1.01712172 6.62326988 0.94983153 3.7993261 0 0 Z " fill="#010207" transform="translate(139,164)"/>
<path d="M0 0 C3.625 0.1875 3.625 0.1875 6.625 2.1875 C7.5 5.125 7.5 5.125 7.625 8.1875 C6.5625 10.0625 6.5625 10.0625 4.625 11.1875 C1.34001168 11.59812354 -0.53345419 11.8046336 -3.25 9.8125 C-4.375 8.1875 -4.375 8.1875 -4.375 6.1875 C-3.715 6.1875 -3.055 6.1875 -2.375 6.1875 C-2.375 4.8675 -2.375 3.5475 -2.375 2.1875 C-3.035 1.8575 -3.695 1.5275 -4.375 1.1875 C-3.375 0.1875 -3.375 0.1875 0 0 Z " fill="#021B25" transform="translate(107.375,139.8125)"/>
<path d="M0 0 C3.77077193 -0.48308822 7.24978406 -0.71106623 11 0 C12.46875 1.74609375 12.46875 1.74609375 13.625 3.9375 C14.83637054 6.26805193 14.83637054 6.26805193 17 8 C22.50235788 9.37841119 28.36759946 9.10035458 34 9 C34 9.33 34 9.66 34 10 C31.69 10 29.38 10 27 10 C27.33 11.32 27.66 12.64 28 14 C30.475 14.495 30.475 14.495 33 15 C33 15.33 33 15.66 33 16 C29.75 16.3125 29.75 16.3125 26 16 C24.64613064 14.34997172 23.31321858 12.6825613 22 11 C20.865625 10.855625 19.73125 10.71125 18.5625 10.5625 C15 10 15 10 12.625 7 C9.75708411 3.72238184 9.26488265 3.54482411 5.1875 3.125 C3.79271423 3.05673969 2.39644183 3.00608471 1 3 C0.67 3.66 0.34 4.32 0 5 C0 3.35 0 1.7 0 0 Z " fill="#08041C" transform="translate(114,108)"/>
<path d="M0 0 C3.21782589 0.64356518 4.41851729 2.03305753 6.5 4.5 C6.190625 5.098125 5.88125 5.69625 5.5625 6.3125 C4.39790296 8.58956772 4.39790296 8.58956772 3.5 11.5 C1.52 11.83 -0.46 12.16 -2.5 12.5 C-2.933125 10.7984375 -2.933125 10.7984375 -3.375 9.0625 C-3.74625 7.886875 -4.1175 6.71125 -4.5 5.5 C-5.16 5.17 -5.82 4.84 -6.5 4.5 C-4.41851729 2.03305753 -3.21782589 0.64356518 0 0 Z " fill="#010103" transform="translate(120.5,112.5)"/>
<path d="M0 0 C0 6.93 0 13.86 0 21 C-3.3 21 -6.6 21 -10 21 C-9.90234375 18.49348958 -9.8046875 15.98697917 -9.70703125 13.48046875 C-10.04918998 10.58352485 -10.75393573 9.77444972 -13 8 C-11.78604047 4.35812142 -10.90993923 4.08254007 -7.625 2.3125 C-6.83351562 1.87550781 -6.04203125 1.43851562 -5.2265625 0.98828125 C-3 0 -3 0 0 0 Z M-6.5625 4 C-7.696875 4.66 -8.83125 5.32 -10 6 C-9.649375 6.825 -9.29875 7.65 -8.9375 8.5 C-7.77664225 12.83386892 -8.24294822 15.60909969 -9 20 C-6.69 20 -4.38 20 -2 20 C-2 14.06 -2 8.12 -2 2 C-3.74206308 2 -5.08595092 3.1409169 -6.5625 4 Z " fill="#0E3369" transform="translate(148,70)"/>
<path d="M0 0 C0.33 0.99 0.66 1.98 1 3 C2.87945312 2.78730469 2.87945312 2.78730469 4.796875 2.5703125 C6.44776807 2.42023131 8.09881942 2.27188416 9.75 2.125 C10.575 2.02703125 11.4 1.9290625 12.25 1.828125 C14.63815472 1.63553188 16.64764881 1.53203469 19 2 C21.578125 4.9921875 21.578125 4.9921875 23 8 C18.74500059 9.16045439 15.31104861 8.82904781 11 8 C10.67 7.67 10.34 7.34 10 7 C8.31816052 6.76712992 6.6287584 6.58735834 4.9375 6.4375 C4.01839844 6.35371094 3.09929687 6.26992187 2.15234375 6.18359375 C1.08693359 6.09271484 1.08693359 6.09271484 0 6 C0 4.02 0 2.04 0 0 Z " fill="#333FDF" transform="translate(152,155)"/>
<path d="M0 0 C2.5 0.125 2.5 0.125 3.5 1.125 C3.54080783 3.12458364 3.54254356 5.12545254 3.5 7.125 C1.85 7.455 0.2 7.785 -1.5 8.125 C-1.5 8.785 -1.5 9.445 -1.5 10.125 C0.48 10.125 2.46 10.125 4.5 10.125 C4.83 9.465 5.16 8.805 5.5 8.125 C5.5 9.115 5.5 10.105 5.5 11.125 C8.47 11.125 11.44 11.125 14.5 11.125 C14.83 11.785 15.16 12.445 15.5 13.125 C13.85425434 13.15188151 12.20838587 13.17134123 10.5625 13.1875 C9.64597656 13.19910156 8.72945312 13.21070312 7.78515625 13.22265625 C5.5 13.125 5.5 13.125 4.5 12.125 C2.18530416 11.6353528 -0.13794836 11.22599 -2.46875 10.8203125 C-3.1390625 10.59085938 -3.809375 10.36140625 -4.5 10.125 C-4.83 9.135 -5.16 8.145 -5.5 7.125 C-4.84 7.125 -4.18 7.125 -3.5 7.125 C-3.520625 6.155625 -3.54125 5.18625 -3.5625 4.1875 C-3.48059244 0.17402962 -3.48059244 0.17402962 0 0 Z " fill="#04263C" transform="translate(132.5,79.875)"/>
<path d="M0 0 C0.90105469 0.02707031 1.80210937 0.05414063 2.73046875 0.08203125 C3.76107422 0.13423828 3.76107422 0.13423828 4.8125 0.1875 C4.8125 2.4975 4.8125 4.8075 4.8125 7.1875 C-0.1375 7.1875 -5.0875 7.1875 -10.1875 7.1875 C-7.42822995 1.6689599 -6.29695814 -0.24533603 0 0 Z " fill="#2E54EC" transform="translate(142.1875,150.8125)"/>
<path d="M0 0 C2.31 0 4.62 0 7 0 C7.66 1.32 8.32 2.64 9 4 C10.43861294 3.91253716 11.87597508 3.80434652 13.3125 3.6875 C14.11300781 3.62949219 14.91351563 3.57148438 15.73828125 3.51171875 C18.36272334 2.91793306 19.30820672 2.04219706 21 0 C21.99 0.33 22.98 0.66 24 1 C21.66849952 4.62993774 19.68590746 7.55845281 15.375 8.6875 C12.90102197 8.91240709 10.48324387 9.03435318 8 9 C8 7.35 8 5.7 8 4 C3.545 3.01 3.545 3.01 -1 2 C-0.67 1.34 -0.34 0.68 0 0 Z " fill="#02131E" transform="translate(106,138)"/>
<path d="M0 0 C2.31 0.66 4.62 1.32 7 2 C6.34 4.31 5.68 6.62 5 9 C6.98 9 8.96 9 11 9 C11.33 8.01 11.66 7.02 12 6 C12 6.66 12 7.32 12 8 C13.32 8.33 14.64 8.66 16 9 C13.09074812 11.90925188 10.95864855 13.31917423 6.875 13.5 C3 13 3 13 1 11 C0.67 10.34 0.34 9.68 0 9 C0.99 8.67 1.98 8.34 3 8 C2.505 7.236875 2.01 6.47375 1.5 5.6875 C0 3 0 3 0 0 Z " fill="#030F14" transform="translate(173,129)"/>
<path d="M0 0 C0.33 0 0.66 0 1 0 C1 2.31 1 4.62 1 7 C1.89138672 6.99214478 1.89138672 6.99214478 2.80078125 6.98413086 C5.5338431 6.96314409 8.2668879 6.95027155 11 6.9375 C12.40185547 6.92493164 12.40185547 6.92493164 13.83203125 6.91210938 C19.32274401 6.89291108 24.56866481 7.1865807 30 8 C29.67 8.99 29.34 9.98 29 11 C23.57223001 11.12622721 23.57223001 11.12622721 20.875 10.53125 C16.82903338 9.78362573 12.79228476 9.63512579 8.6875 9.4375 C7.85154297 9.39431641 7.01558594 9.35113281 6.15429688 9.30664062 C4.10303065 9.20114693 2.0515352 9.10012685 0 9 C0 6.03 0 3.06 0 0 Z " fill="#198CF5" transform="translate(152,138)"/>
<path d="M0 0 C4.29 0 8.58 0 13 0 C12.01 1.485 12.01 1.485 11 3 C8.6171875 3.29296875 8.6171875 3.29296875 5.875 3.1875 C4.96492187 3.16042969 4.05484375 3.13335937 3.1171875 3.10546875 C2.41851562 3.07066406 1.71984375 3.03585938 1 3 C1 3.99 1 4.98 1 6 C2.65 6 4.3 6 6 6 C6 5.34 6 4.68 6 4 C7.65 4.33 9.3 4.66 11 5 C10.67 5.99 10.34 6.98 10 8 C7.03 8 4.06 8 1 8 C1 11.63 1 15.26 1 19 C0.67 19 0.34 19 0 19 C0 12.73 0 6.46 0 0 Z " fill="#ADB3DF" transform="translate(160,118)"/>
<path d="M0 0 C1.32 0.66 2.64 1.32 4 2 C3.33333333 4.66666667 2.66666667 7.33333333 2 10 C-2.29 9.67 -6.58 9.34 -11 9 C-11 8.34 -11 7.68 -11 7 C-6.545 6.505 -6.545 6.505 -2 6 C-2 5.34 -2 4.68 -2 4 C-3.32 3.67 -4.64 3.34 -6 3 C-6 3.66 -6 4.32 -6 5 C-7.65 5 -9.3 5 -11 5 C-11 4.01 -11 3.02 -11 2 C-10.28972656 1.93941406 -9.57945312 1.87882812 -8.84765625 1.81640625 C-7.46900391 1.69072266 -7.46900391 1.69072266 -6.0625 1.5625 C-5.14597656 1.48128906 -4.22945312 1.40007812 -3.28515625 1.31640625 C-1.03840268 1.23955024 -1.03840268 1.23955024 0 0 Z " fill="#F3F3F9" transform="translate(172,119)"/>
<path d="M0 0 C3.3 0 6.6 0 10 0 C10 3.63 10 7.26 10 11 C2.51295337 11.44041451 2.51295337 11.44041451 -1 11 C-3.1875 8.5 -3.1875 8.5 -4 6 C0.084979 5.45533613 3.8725485 5 8 5 C8.33 3.68 8.66 2.36 9 1 C6.03 1 3.06 1 0 1 C0 0.67 0 0.34 0 0 Z " fill="#2754D8" transform="translate(138,93)"/>
<path d="M0 0 C1.32 0 2.64 0 4 0 C4.598125 0.78375 5.19625 1.5675 5.8125 2.375 C8.5739319 5.68871828 10.85730617 6.12366092 15 7 C15 7.66 15 8.32 15 9 C10.05 9 5.1 9 0 9 C0 6.03 0 3.06 0 0 Z " fill="#2869F4" transform="translate(99,146)"/>
<path d="M0 0 C5.61 0.33 11.22 0.66 17 1 C8.25581395 7.55813953 8.25581395 7.55813953 1 7 C0.67 6.67 0.34 6.34 0 6 C0 4.02 0 2.04 0 0 Z " fill="#2E53E9" transform="translate(185,154)"/>
<path d="M0 0 C1.09570312 0.00902344 2.19140625 0.01804687 3.3203125 0.02734375 C4.16335937 0.03894531 5.00640625 0.05054687 5.875 0.0625 C5.875 1.7125 5.875 3.3625 5.875 5.0625 C0.595 5.0625 -4.685 5.0625 -10.125 5.0625 C-7.31836073 -0.55077855 -5.91226546 -0.06289644 0 0 Z " fill="#2A5EED" transform="translate(109.125,95.9375)"/>
<path d="M0 0 C3.63 0 7.26 0 11 0 C10.67 1.65 10.34 3.3 10 5 C3.73 5 -2.54 5 -9 5 C-9 4.34 -9 3.68 -9 3 C-6.03 3 -3.06 3 0 3 C0 2.01 0 1.02 0 0 Z " fill="#1D7DF0" transform="translate(162,91)"/>
<path d="M0 0 C0.7734375 -0.00773437 1.546875 -0.01546875 2.34375 -0.0234375 C5.00414788 0.46815776 5.91331254 1.20856136 7.5 3.375 C7.5 4.365 7.5 5.355 7.5 6.375 C4.53 6.045 1.56 5.715 -1.5 5.375 C-1.5 6.035 -1.5 6.695 -1.5 7.375 C-2.16 7.375 -2.82 7.375 -3.5 7.375 C-3.83 6.715 -4.16 6.055 -4.5 5.375 C-5.49 4.715 -6.48 4.055 -7.5 3.375 C-5.1401145 0.51590795 -3.68467375 -0.03684674 0 0 Z " fill="#B8B6ED" transform="translate(131.5,117.625)"/>
<path d="M0 0 C1.98 0 3.96 0 6 0 C6 0.33 6 0.66 6 1 C4.35 1 2.7 1 1 1 C1 5.62 1 10.24 1 15 C6.28 15 11.56 15 17 15 C17 15.99 17 16.98 17 18 C11.72 18 6.44 18 1 18 C-0.59412284 14.81175432 -0.10174735 11.37103338 -0.0625 7.875 C-0.05798828 7.12089844 -0.05347656 6.36679688 -0.04882812 5.58984375 C-0.03703499 3.72652873 -0.01909942 1.86325445 0 0 Z " fill="#25A6E0" transform="translate(152,122)"/>
<path d="M0 0 C0 0.66 0 1.32 0 2 C0.66 2.66 1.32 3.32 2 4 C0.94921875 5.953125 0.94921875 5.953125 -1 8 C-4.35546875 8.609375 -4.35546875 8.609375 -8.1875 8.75 C-9.45980469 8.80671875 -10.73210937 8.8634375 -12.04296875 8.921875 C-13.01878906 8.94765625 -13.99460937 8.9734375 -15 9 C-12.33174077 6.14898329 -9.80622618 4.109059 -6.375 2.25 C-5.59898438 1.82203125 -4.82296875 1.3940625 -4.0234375 0.953125 C-2 0 -2 0 0 0 Z " fill="#1C70DB" transform="translate(116,88)"/>
<path d="M0 0 C0.6875 1.8125 0.6875 1.8125 1 4 C-0.5624335 6.05449859 -1.6295939 6.89222069 -4.12109375 7.6171875 C-10.36104627 8.31168475 -10.36104627 8.31168475 -13.5625 6.75 C-15 5 -15 5 -15 2 C-13.35 2 -11.7 2 -10 2 C-10 2.66 -10 3.32 -10 4 C-6.7 3.67 -3.4 3.34 0 3 C0 2.01 0 1.02 0 0 Z " fill="#AACFED" transform="translate(139,130)"/>
<path d="M0 0 C3.3 0 6.6 0 10 0 C10 0.33 10 0.66 10 1 C7.03 1 4.06 1 1 1 C1 1.66 1 2.32 1 3 C6.94 3 12.88 3 19 3 C14.4937851 6.37966117 13.23730023 6.36243109 7.8125 6.25 C6.56082031 6.23453125 5.30914062 6.2190625 4.01953125 6.203125 C1 6 1 6 0 5 C0 3.35 0 1.7 0 0 Z " fill="#2268E1" transform="translate(152,93)"/>
<path d="M0 0 C-0.75827092 1.17487036 -1.53207755 2.33972592 -2.3125 3.5 C-2.74175781 4.1496875 -3.17101562 4.799375 -3.61328125 5.46875 C-4.07089844 5.9740625 -4.52851563 6.479375 -5 7 C-5.99 7 -6.98 7 -8 7 C-8.61875 6.360625 -9.2375 5.72125 -9.875 5.0625 C-12.28839022 2.72009185 -13.7163874 2.36484584 -17 2 C-17 1.67 -17 1.34 -17 1 C-10.97767819 -0.46619907 -6.09632423 -1.32528788 0 0 Z " fill="#1C70DC" transform="translate(136,148)"/>
<path d="M0 0 C0.33 0 0.66 0 1 0 C1.0270043 1.45823212 1.04639787 2.91660675 1.0625 4.375 C1.07410156 5.18710938 1.08570313 5.99921875 1.09765625 6.8359375 C1 9 1 9 0 11 C-5.28 11 -10.56 11 -16 11 C-16 10.01 -16 9.02 -16 8 C-10.72 8 -5.44 8 0 8 C0 5.36 0 2.72 0 0 Z " fill="#1BB6F6" transform="translate(147,129)"/>
<path d="M0 0 C0.33 0 0.66 0 1 0 C1 1.65 1 3.3 1 5 C0.278125 4.87625 -0.44375 4.7525 -1.1875 4.625 C-2.5796875 4.810625 -2.5796875 4.810625 -4 5 C-4.680625 5.99 -5.36125 6.98 -6.0625 8 C-7.265625 9.6640625 -7.265625 9.6640625 -9 11 C-13.04449831 11.53997229 -16.94314434 11.34939427 -21 11 C-21 10.34 -21 9.68 -21 9 C-20.34773437 8.99742188 -19.69546875 8.99484375 -19.0234375 8.9921875 C-13.75891865 8.86780234 -13.75891865 8.86780234 -9.17578125 6.59765625 C-8.68464844 6.04980469 -8.19351563 5.50195312 -7.6875 4.9375 C-5 2 -5 2 -2.125 1.625 C-1.073125 1.810625 -1.073125 1.810625 0 2 C0 1.34 0 0.68 0 0 Z " fill="#05091C" transform="translate(173,95)"/>
<path d="M0 0 C0.33 0 0.66 0 1 0 C1 5.94 1 11.88 1 18 C3.64 16.35 6.28 14.7 9 13 C8.34 11.68 7.68 10.36 7 9 C6.875 6.25 6.875 6.25 7 4 C7.2475 4.5775 7.495 5.155 7.75 5.75 C8.93990475 8.13449889 8.93990475 8.13449889 11.125 10.125 C13 12 13 12 13 14 C10.91796875 15.5078125 10.91796875 15.5078125 8.1875 17.125 C7.29417969 17.66382813 6.40085938 18.20265625 5.48046875 18.7578125 C3 20 3 20 0 20 C0 13.4 0 6.8 0 0 Z " fill="#133D81" transform="translate(152,164)"/>
<path d="M0 0 C1.62490954 -0.02698189 3.24994633 -0.04638757 4.875 -0.0625 C5.77992188 -0.07410156 6.68484375 -0.08570312 7.6171875 -0.09765625 C10 0 10 0 12 1 C13.0703125 3.06640625 13.0703125 3.06640625 14.125 5.5625 C14.47820312 6.38878906 14.83140625 7.21507812 15.1953125 8.06640625 C15.46085938 8.70449219 15.72640625 9.34257812 16 10 C12.6875 10.25 12.6875 10.25 9 10 C7.0625 8 7.0625 8 6 6 C6.33 5.34 6.66 4.68 7 4 C7.99 4.33 8.98 4.66 10 5 C10 6.32 10 7.64 10 9 C10.66 9 11.32 9 12 9 C11.42655063 6.13275314 11.1385485 5.1385485 9 3 C6.79749008 2.53993654 6.79749008 2.53993654 4.375 2.375 C3.14910156 2.26285156 3.14910156 2.26285156 1.8984375 2.1484375 C1.27195313 2.09945312 0.64546875 2.05046875 0 2 C0 1.34 0 0.68 0 0 Z " fill="#9DBDEC" transform="translate(161,128)"/>
<path d="M0 0 C0.33 0 0.66 0 1 0 C1.33 2.64 1.66 5.28 2 8 C2.99 7.67 3.98 7.34 5 7 C5.33 8.98 5.66 10.96 6 13 C4.02 13 2.04 13 0 13 C-0.33 13.99 -0.66 14.98 -1 16 C-3.0625 16.6875 -3.0625 16.6875 -5 17 C-4.505 15.515 -4.505 15.515 -4 14 C-3.01 14 -2.02 14 -1 14 C-0.67 12.02 -0.34 10.04 0 8 C-0.66 8 -1.32 8 -2 8 C-1.34 5.36 -0.68 2.72 0 0 Z " fill="#8797B4" transform="translate(184,118)"/>
<path d="M0 0 C6.93 0 13.86 0 21 0 C20.67 0.99 20.34 1.98 20 3 C13.4 3 6.8 3 0 3 C0 2.01 0 1.02 0 0 Z " fill="#4325EB" transform="translate(153,109)"/>
<path d="M0 0 C7.26 0 14.52 0 22 0 C21.67 0.99 21.34 1.98 21 3 C18.43721301 3.05420701 15.87558517 3.09377007 13.3125 3.125 C12.59126953 3.14175781 11.87003906 3.15851563 11.12695312 3.17578125 C6.95123219 3.21391569 3.7505862 2.8789919 0 1 C0 0.67 0 0.34 0 0 Z " fill="#4226E9" transform="translate(125,109)"/>
<path d="M0 0 C0.33 0 0.66 0 1 0 C1 1.98 1 3.96 1 6 C-1.43711614 6.19484938 -3.87437398 6.38115178 -6.3125 6.5625 C-7.00279297 6.61857422 -7.69308594 6.67464844 -8.40429688 6.73242188 C-11.62512274 6.96581505 -13.90327345 7.03224218 -17 6 C-17 5.01 -17 4.02 -17 3 C-14.03 3.33 -11.06 3.66 -8 4 C-7.67 3.34 -7.34 2.68 -7 2 C-7 2.66 -7 3.32 -7 4 C-6.34 3.34 -5.68 2.68 -5 2 C-2.375 1.875 -2.375 1.875 0 2 C0 1.34 0 0.68 0 0 Z " fill="#313E75" transform="translate(147,120)"/>
<path d="M0 0 C0.33 1.32 0.66 2.64 1 4 C4.82005724 3.53895861 8.59100589 3.07573965 12.375 2.375 C15 2 15 2 17 3 C17 3.99 17 4.98 17 6 C14.39590255 6.16781295 11.7917318 6.33429651 9.1875 6.5 C8.08051758 6.57154297 8.08051758 6.57154297 6.95117188 6.64453125 C3.96175412 6.83390613 0.99625426 7 -2 7 C-1.34 4.69 -0.68 2.38 0 0 Z " fill="#2A5DEB" transform="translate(185,95)"/>
<path d="M0 0 C1.32 0 2.64 0 4 0 C9 5.22727273 9 5.22727273 9 8 C12.63 8 16.26 8 20 8 C20 8.66 20 9.32 20 10 C9.3125 10.92045455 9.3125 10.92045455 6.1953125 8.734375 C4.9375 7.125 4.9375 7.125 3 4 C2.01 3.34 1.02 2.68 0 2 C0 1.34 0 0.68 0 0 Z " fill="#06081C" transform="translate(128,96)"/>
<path d="M0 0 C3 2 3 2 3.6875 4.125 C3.8421875 5.053125 3.8421875 5.053125 4 6 C5.65 6 7.3 6 9 6 C9.33 4.35 9.66 2.7 10 1 C10.33 1 10.66 1 11 1 C11.625 4.375 11.625 4.375 12 8 C10 10 10 10 6.5 10.1875 C3 10 3 10 1 9 C0.5859375 6.93359375 0.5859375 6.93359375 0.375 4.4375 C0.30023438 3.61121094 0.22546875 2.78492188 0.1484375 1.93359375 C0.09945312 1.29550781 0.05046875 0.65742188 0 0 Z " fill="#051527" transform="translate(115,153)"/>
<path d="M0 0 C-0.33 1.32 -0.66 2.64 -1 4 C-6.61 4 -12.22 4 -18 4 C-18 3.01 -18 2.02 -18 1 C-15.37504621 0.83257698 -12.75004205 0.6660283 -10.125 0.5 C-9.00544922 0.42845703 -9.00544922 0.42845703 -7.86328125 0.35546875 C-2.2265625 0 -2.2265625 0 0 0 Z " fill="#0EA7F8" transform="translate(171,139)"/>
<path d="M0 0 C1.64574566 -0.02688151 3.29161413 -0.04634123 4.9375 -0.0625 C5.85402344 -0.07410156 6.77054688 -0.08570313 7.71484375 -0.09765625 C10 0 10 0 11 1 C13.32817964 1.36760731 15.6618385 1.70241581 18 2 C18 2.33 18 2.66 18 3 C15.36 3 12.72 3 10 3 C9.67 4.32 9.34 5.64 9 7 C8.34 6.67 7.68 6.34 7 6 C7.33 5.01 7.66 4.02 8 3 C5.36 3 2.72 3 0 3 C0 2.01 0 1.02 0 0 Z " fill="#180850" transform="translate(152,161)"/>
<path d="M0 0 C0.556875 0.66 1.11375 1.32 1.6875 2 C3.84062308 4.25492211 3.84062308 4.25492211 6.75 4.25 C7.4925 4.1675 8.235 4.085 9 4 C9.3403125 5.175625 9.3403125 5.175625 9.6875 6.375 C10.78125 9.21875 10.78125 9.21875 13.625 10.3125 C14.800625 10.6528125 14.800625 10.6528125 16 11 C16 11.33 16 11.66 16 12 C12.6875 12.25 12.6875 12.25 9 12 C7.375 10.1875 7.375 10.1875 6 8 C4.34051852 6.98812105 2.67419438 5.9873454 1 5 C0.34 4.01 -0.32 3.02 -1 2 C-0.67 1.34 -0.34 0.68 0 0 Z " fill="#020810" transform="translate(165,150)"/>
<path d="M0 0 C2.5 0.125 2.5 0.125 3.5 1.125 C3.54080783 3.12458364 3.54254356 5.12545254 3.5 7.125 C1.50045254 7.16754356 -0.50041636 7.16580783 -2.5 7.125 C-3.5 6.125 -3.5 6.125 -3.625 3.625 C-3.45661291 0.25725827 -3.36774173 0.16838709 0 0 Z " fill="#00DDDD" transform="translate(190.5,140.875)"/>
<path d="M0 0 C2.5 0.125 2.5 0.125 3.5 1.125 C3.54080783 3.12458364 3.54254356 5.12545254 3.5 7.125 C1.50045254 7.16754356 -0.50041636 7.16580783 -2.5 7.125 C-3.5 6.125 -3.5 6.125 -3.625 3.625 C-3.45661291 0.25725827 -3.36774173 0.16838709 0 0 Z " fill="#00DBDB" transform="translate(166.5,79.875)"/>
<path d="M0 0 C2.5 0.125 2.5 0.125 3.5 1.125 C3.54080783 3.12458364 3.54254356 5.12545254 3.5 7.125 C1.50045254 7.16754356 -0.50041636 7.16580783 -2.5 7.125 C-3.5 6.125 -3.5 6.125 -3.625 3.625 C-3.45661291 0.25725827 -3.36774173 0.16838709 0 0 Z " fill="#00DBDB" transform="translate(132.5,79.875)"/>
<path d="M0 0 C1.4540625 0.0309375 1.4540625 0.0309375 2.9375 0.0625 C2.98004356 2.06204746 2.97830783 4.06291636 2.9375 6.0625 C1.9375 7.0625 1.9375 7.0625 -0.625 7.125 C-1.8315625 7.0940625 -1.8315625 7.0940625 -3.0625 7.0625 C-3.44383299 5.0710944 -3.77575582 3.06970923 -4.0625 1.0625 C-3.0625 0.0625 -3.0625 0.0625 0 0 Z " fill="#00DFDF" transform="translate(167.0625,166.9375)"/>
<path d="M0 0 C1.4540625 0.0309375 1.4540625 0.0309375 2.9375 0.0625 C2.98004356 2.06204746 2.97830783 4.06291636 2.9375 6.0625 C1.9375 7.0625 1.9375 7.0625 -0.625 7.125 C-1.8315625 7.0940625 -1.8315625 7.0940625 -3.0625 7.0625 C-3.44383299 5.0710944 -3.77575582 3.06970923 -4.0625 1.0625 C-3.0625 0.0625 -3.0625 0.0625 0 0 Z " fill="#00DFDF" transform="translate(133.0625,166.9375)"/>
<path d="M0 0 C0 0.66 0 1.32 0 2 C-4.95 2 -9.9 2 -15 2 C-15 1.01 -15 0.02 -15 -1 C-13.06403108 -1.22211116 -11.12610672 -1.42722992 -9.1875 -1.625 C-8.10855469 -1.74101562 -7.02960938 -1.85703125 -5.91796875 -1.9765625 C-3 -2 -3 -2 0 0 Z " fill="#2F53ED" transform="translate(168,156)"/>
<path d="M0 0 C2.5 0.125 2.5 0.125 3.5 1.125 C3.625 3.625 3.625 3.625 3.5 6.125 C2.5 7.125 2.5 7.125 0 7.25 C-2.5 7.125 -2.5 7.125 -3.5 6.125 C-3.625 3.625 -3.625 3.625 -3.5 1.125 C-2.5 0.125 -2.5 0.125 0 0 Z " fill="#00DEDE" transform="translate(178.5,152.875)"/>
<path d="M0 0 C2.5 0.125 2.5 0.125 3.5 1.125 C3.625 3.625 3.625 3.625 3.5 6.125 C2.5 7.125 2.5 7.125 0 7.25 C-2.5 7.125 -2.5 7.125 -3.5 6.125 C-3.625 3.625 -3.625 3.625 -3.5 1.125 C-2.5 0.125 -2.5 0.125 0 0 Z " fill="#00E3E3" transform="translate(121.5,152.875)"/>
<path d="M0 0 C5.61 0 11.22 0 17 0 C17 0.66 17 1.32 17 2 C13.32612505 2.85298376 9.9552607 3.10789471 6.1875 3.0625 C5.21167969 3.05347656 4.23585937 3.04445313 3.23046875 3.03515625 C2.49441406 3.02355469 1.75835937 3.01195313 1 3 C0.67 2.01 0.34 1.02 0 0 Z " fill="#4A09DD" transform="translate(130,114)"/>
<path d="M0 0 C2.5 0.125 2.5 0.125 3.5 1.125 C3.625 3.625 3.625 3.625 3.5 6.125 C2.5 7.125 2.5 7.125 0 7.25 C-2.5 7.125 -2.5 7.125 -3.5 6.125 C-3.625 3.625 -3.625 3.625 -3.5 1.125 C-2.5 0.125 -2.5 0.125 0 0 Z " fill="#00E1E1" transform="translate(190.5,105.875)"/>
<path d="M0 0 C2.5 0.125 2.5 0.125 3.5 1.125 C3.625 3.625 3.625 3.625 3.5 6.125 C2.5 7.125 2.5 7.125 0 7.25 C-2.5 7.125 -2.5 7.125 -3.5 6.125 C-3.625 3.625 -3.625 3.625 -3.5 1.125 C-2.5 0.125 -2.5 0.125 0 0 Z " fill="#00E1E1" transform="translate(109.5,105.875)"/>
<path d="M0 0 C2.5 0.125 2.5 0.125 3.5 1.125 C3.625 3.625 3.625 3.625 3.5 6.125 C2.5 7.125 2.5 7.125 0 7.25 C-2.5 7.125 -2.5 7.125 -3.5 6.125 C-3.625 3.625 -3.625 3.625 -3.5 1.125 C-2.5 0.125 -2.5 0.125 0 0 Z " fill="#00E3E3" transform="translate(121.5,93.875)"/>
<path d="M0 0 C0.84648974 2.53946923 1.02071669 3.90562398 0.4375 6.5625 C-0.33510992 9.24805134 -0.33510992 9.24805134 2 12 C4.05003955 13.19232613 4.05003955 13.19232613 6 14 C5.67 14.66 5.34 15.32 5 16 C4.29875 15.54625 3.5975 15.0925 2.875 14.625 C-0.02984591 12.98313057 -2.8139348 11.96322901 -6 11 C-4.375 5.25 -4.375 5.25 -1 3 C-0.67 2.01 -0.34 1.02 0 0 Z " fill="#7B8FB1" transform="translate(116,120)"/>
<path d="M0 0 C1.2065625 0.0309375 1.2065625 0.0309375 2.4375 0.0625 C3.0625 2.4375 3.0625 2.4375 3.4375 5.0625 C2.7775 5.7225 2.1175 6.3825 1.4375 7.0625 C-1.1875 6.6875 -1.1875 6.6875 -3.5625 6.0625 C-3.605221 4.39638095 -3.60313832 2.72867115 -3.5625 1.0625 C-2.5625 0.0625 -2.5625 0.0625 0 0 Z " fill="#00E5E5" transform="translate(109.5625,140.9375)"/>
<path d="M0 0 C5.28 0 10.56 0 16 0 C15.67 0.99 15.34 1.98 15 3 C9.72 3 4.44 3 -1 3 C-0.67 2.01 -0.34 1.02 0 0 Z " fill="#0EAAFC" transform="translate(131,140)"/>
<path d="M0 0 C6.625 -0.25 6.625 -0.25 10 2 C9.34 4.31 8.68 6.62 8 9 C7.34 8.01 6.68 7.02 6 6 C5.34 5.87625 4.68 5.7525 4 5.625 C3.34 5.41875 2.68 5.2125 2 5 C0.75 2.4375 0.75 2.4375 0 0 Z " fill="#172342" transform="translate(174,119)"/>
<path d="M0 0 C-0.33 1.65 -0.66 3.3 -1 5 C-2.65614657 5.38218767 -4.32457024 5.71395102 -6 6 C-7 5 -7 5 -7.0625 2.4375 C-7.041875 1.633125 -7.02125 0.82875 -7 0 C-4.3333581 -1.33332095 -2.83319697 -0.67102033 0 0 Z " fill="#00E5E5" transform="translate(182,95)"/>
<path d="M0 0 C3.3 0 6.6 0 10 0 C10 1.32 10 2.64 10 4 C6.37 4 2.74 4 -1 4 C-0.67 2.68 -0.34 1.36 0 0 Z " fill="#2868F4" transform="translate(137,151)"/>
<path d="M0 0 C0 1.32 0 2.64 0 4 C-1.32 4 -2.64 4 -4 4 C-4 3.34 -4 2.68 -4 2 C-6.64 1.67 -9.28 1.34 -12 1 C-12.33 1.66 -12.66 2.32 -13 3 C-13 2.01 -13 1.02 -13 0 C-7.95531271 -2.21474076 -5.14089313 -1.85072153 0 0 Z " fill="#335967" transform="translate(133,130)"/>
<path d="M0 0 C1.875 0.25 1.875 0.25 4 1 C5.25 3.0625 5.25 3.0625 6 5 C4.72125 5.12375 3.4425 5.2475 2.125 5.375 C-1.34790936 5.69042399 -1.34790936 5.69042399 -4 8 C-6.475 7.01 -6.475 7.01 -9 6 C-9 5.67 -9 5.34 -9 5 C-7.88625 4.731875 -6.7725 4.46375 -5.625 4.1875 C-1.78159049 3.34190981 -1.78159049 3.34190981 0 0 Z " fill="#2C45D2" transform="translate(128,99)"/>
<path d="M0 0 C4.95 0 9.9 0 15 0 C14.67 0.99 14.34 1.98 14 3 C9.71 3 5.42 3 1 3 C0.67 2.01 0.34 1.02 0 0 Z " fill="#256BF0" transform="translate(132,96)"/>
<path d="M0 0 C5.61 0 11.22 0 17 0 C17 0.33 17 0.66 17 1 C14.69 1 12.38 1 10 1 C10.33 2.32 10.66 3.64 11 5 C12.65 5.33 14.3 5.66 16 6 C16 6.33 16 6.66 16 7 C12.75 7.3125 12.75 7.3125 9 7 C6.875 4.5625 6.875 4.5625 5 2 C2.36539052 1.12056596 2.36539052 1.12056596 0 1 C0 0.67 0 0.34 0 0 Z " fill="#150938" transform="translate(131,117)"/>
<path d="M0 0 C3.79588866 0.54226981 5.47211993 2.20127563 8 5 C4.77208445 7.1519437 3.71599191 7.20086443 0 7 C0 4.69 0 2.38 0 0 Z " fill="#0EA0F0" transform="translate(174,83)"/>
<path d="M0 0 C1.17949219 0.10183594 2.35898438 0.20367187 3.57421875 0.30859375 C4.47785156 0.39238281 5.38148438 0.47617188 6.3125 0.5625 C6.3125 1.2225 6.3125 1.8825 6.3125 2.5625 C1.0325 2.5625 -4.2475 2.5625 -9.6875 2.5625 C-9.6875 1.9025 -9.6875 1.2425 -9.6875 0.5625 C-6.14075997 -0.61974668 -3.71227005 -0.33079634 0 0 Z " fill="#2A64F4" transform="translate(195.6875,152.4375)"/>
<path d="M0 0 C0.81984375 0.05800781 1.6396875 0.11601562 2.484375 0.17578125 C2.484375 1.16578125 2.484375 2.15578125 2.484375 3.17578125 C-1.145625 3.17578125 -4.775625 3.17578125 -8.515625 3.17578125 C-9.175625 4.49578125 -9.835625 5.81578125 -10.515625 7.17578125 C-11.505625 6.51578125 -12.495625 5.85578125 -13.515625 5.17578125 C-10.40821807 -1.03903261 -6.20026032 -0.25958028 0 0 Z " fill="#0A2B54" transform="translate(145.515625,146.82421875)"/>
<path d="M0 0 C-0.625 2.4375 -0.625 2.4375 -2 5 C-5.125 5.8125 -5.125 5.8125 -8 6 C-8.33 4.35 -8.66 2.7 -9 1 C-6.04335481 -0.4783226 -3.25770263 -0.06032783 0 0 Z " fill="#141E3F" transform="translate(126,119)"/>
<path d="M0 0 C2.56826493 -0.18802605 4.49175963 -0.13442674 6.97265625 0.578125 C9.19233033 2.63961541 10.60709698 4.8881791 11.97265625 7.578125 C9.50465578 6.42639145 7.9248206 5.53028935 5.97265625 3.578125 C1.73302344 3.26407813 -1.39268773 3.25194515 -5.02734375 5.578125 C-3.9297758 2.65127715 -3.11895808 0.88941386 0 0 Z " fill="#200562" transform="translate(117.02734375,110.421875)"/>
<path d="M0 0 C1.6875 2.5 1.6875 2.5 3 5 C-4.625 6 -4.625 6 -8 6 C-3.375 0 -3.375 0 0 0 Z " fill="#2C47D5" transform="translate(172,99)"/>
<path d="M0 0 C1.32 0.33 2.64 0.66 4 1 C4.25 6.625 4.25 6.625 2 10 C-1.125 10.1875 -1.125 10.1875 -4 10 C-4 9.34 -4 8.68 -4 8 C-2.68 7.67 -1.36 7.34 0 7 C0 4.69 0 2.38 0 0 Z " fill="#001416" transform="translate(135,80)"/>
<path d="M0 0 C3.63 0 7.26 0 11 0 C10.67 1.65 10.34 3.3 10 5 C5.59885603 4.49701212 3.28804981 2.91227269 0 0 Z " fill="#3E13C9" transform="translate(116,166)"/>
<path d="M0 0 C3.6875 -0.25 3.6875 -0.25 7 0 C7 1.32 7 2.64 7 4 C3.7 4 0.4 4 -3 4 C-2.01 2.68 -1.02 1.36 0 0 Z " fill="#0A3149" transform="translate(140,133)"/>
<path d="M0 0 C0.66 0.33 1.32 0.66 2 1 C1.67 2.32 1.34 3.64 1 5 C-3.29 4.67 -7.58 4.34 -12 4 C-12 3.34 -12 2.68 -12 2 C-11.21753906 1.93941406 -10.43507812 1.87882812 -9.62890625 1.81640625 C-8.61699219 1.73261719 -7.60507813 1.64882812 -6.5625 1.5625 C-5.55316406 1.48128906 -4.54382813 1.40007812 -3.50390625 1.31640625 C-1.06359221 1.26788532 -1.06359221 1.26788532 0 0 Z " fill="#F5FEFE" transform="translate(173,124)"/>
<path d="M0 0 C1.50433594 0.01353516 1.50433594 0.01353516 3.0390625 0.02734375 C3.80992188 0.03894531 4.58078125 0.05054687 5.375 0.0625 C5.045 1.0525 4.715 2.0425 4.375 3.0625 C0.745 3.0625 -2.885 3.0625 -6.625 3.0625 C-6.955 2.4025 -7.285 1.7425 -7.625 1.0625 C-4.98041621 -0.25979189 -2.94738699 -0.03427194 0 0 Z " fill="#266DF5" transform="translate(108.625,95.9375)"/>
<path d="M0 0 C4.75481646 0.57634139 7.97048212 2.55068521 12 5 C11.625 6.9375 11.625 6.9375 11 9 C10.01 9.495 10.01 9.495 9 10 C8.91878906 9.39542969 8.83757812 8.79085937 8.75390625 8.16796875 C7.76257089 5.31723752 6.53576558 4.76514583 3.9375 3.3125 C2.61379024 2.56107952 1.29784386 1.79526196 0 1 C0 0.67 0 0.34 0 0 Z " fill="#1A1160" transform="translate(152,70)"/>
<path d="M0 0 C0.66 0.33 1.32 0.66 2 1 C1.01 2.485 1.01 2.485 0 4 C0.928125 4.28875 1.85625 4.5775 2.8125 4.875 C6 6 6 6 9 8 C9 8.66 9 9.32 9 10 C4.69235185 8.43358249 0.93828536 6.31663844 -3 4 C-3 3.34 -3 2.68 -3 2 C-2.01 1.34 -1.02 0.68 0 0 Z " fill="#093E69" transform="translate(138,174)"/>
<path d="M0 0 C0.33 0.99 0.66 1.98 1 3 C1.66 3.33 2.32 3.66 3 4 C2.34 4.66 1.68 5.32 1 6 C0.35232207 8.57061311 0.35232207 8.57061311 0 11 C-0.33 11 -0.66 11 -1 11 C-1 9.35 -1 7.7 -1 6 C-3.31 5.67 -5.62 5.34 -8 5 C-8 4.67 -8 4.34 -8 4 C-4.535 3.505 -4.535 3.505 -1 3 C-0.67 2.01 -0.34 1.02 0 0 Z " fill="#1F5CCA" transform="translate(115,147)"/>
<path d="M0 0 C1.32 0.33 2.64 0.66 4 1 C4 1.66 4 2.32 4 3 C6.31 3.66 8.62 4.32 11 5 C11 5.33 11 5.66 11 6 C8.03 6 5.06 6 2 6 C1.34 4.02 0.68 2.04 0 0 Z " fill="#EDF5F9" transform="translate(124,122)"/>
<path d="M0 0 C5.75 0.75 5.75 0.75 8 3 C8 3.99 8 4.98 8 6 C8.99 6.33 9.98 6.66 11 7 C10.01 7 9.02 7 8 7 C7.67 7.99 7.34 8.98 7 10 C6.67 10 6.34 10 6 10 C6 7.69 6 5.38 6 3 C3.69 2.67 1.38 2.34 -1 2 C-0.67 1.34 -0.34 0.68 0 0 Z " fill="#01060C" transform="translate(120,91)"/>
<path d="M0 0 C0.99 0 1.98 0 3 0 C3 0.66 3 1.32 3 2 C4.98 1.34 6.96 0.68 9 0 C8.34 1.32 7.68 2.64 7 4 C5.68 4 4.36 4 3 4 C2.67 4.99 2.34 5.98 2 7 C1.67 7 1.34 7 1 7 C0.67 4.69 0.34 2.38 0 0 Z " fill="#040816" transform="translate(125,153)"/>
<path d="M0 0 C2.64 0 5.28 0 8 0 C7.34 1.65 6.68 3.3 6 5 C4.125 4.75 4.125 4.75 2 4 C0.75 1.9375 0.75 1.9375 0 0 Z " fill="#2162D9" transform="translate(166,150)"/>
<path d="M0 0 C0.33 0.66 0.66 1.32 1 2 C3.02463255 2.65213292 3.02463255 2.65213292 5 3 C2.09074812 5.90925188 -0.04135145 7.31917423 -4.125 7.5 C-8 7 -8 7 -10 5 C-10.33 4.34 -10.66 3.68 -11 3 C-10.195625 3.495 -10.195625 3.495 -9.375 4 C-6.4608939 5.22699204 -4.13132292 5.14233286 -1 5 C-0.67 3.35 -0.34 1.7 0 0 Z " fill="#0C4E69" transform="translate(184,135)"/>
<path d="M0 0 C2.31 0 4.62 0 7 0 C7 1.32 7 2.64 7 4 C4.69 4 2.38 4 0 4 C0 2.68 0 1.36 0 0 Z " fill="#042B43" transform="translate(153,133)"/>
<path d="M0 0 C0.66 0 1.32 0 2 0 C2.66 2.97 3.32 5.94 4 9 C2.68 8.34 1.36 7.68 0 7 C-0.8125 3.9375 -0.8125 3.9375 -1 1 C-0.67 0.67 -0.34 0.34 0 0 Z " fill="#E1EEF6" transform="translate(116,124)"/>
<path d="M0 0 C0.66 0 1.32 0 2 0 C2.33 2.31 2.66 4.62 3 7 C4.32 7.33 5.64 7.66 7 8 C5.35 8.33 3.7 8.66 2 9 C0.4375 7.3125 0.4375 7.3125 -1 5 C-0.6875 2.25 -0.6875 2.25 0 0 Z " fill="#020B14" transform="translate(161,167)"/>
<path d="M0 0 C3.63 0 7.26 0 11 0 C8 3 8 3 4.3125 3.1875 C2.6728125 3.0946875 2.6728125 3.0946875 1 3 C0.67 2.01 0.34 1.02 0 0 Z " fill="#3544EA" transform="translate(185,158)"/>
<path d="M0 0 C0.66 0.99 1.32 1.98 2 3 C0.35 4.98 -1.3 6.96 -3 9 C-3.99 8.67 -4.98 8.34 -6 8 C-4.02 5.36 -2.04 2.72 0 0 Z " fill="#0A0322" transform="translate(174,109)"/>
<path d="M0 0 C2.97 0.33 5.94 0.66 9 1 C9 2.32 9 3.64 9 5 C7.35 5 5.7 5 4 5 C3.67 4.01 3.34 3.02 3 2 C2.01 1.67 1.02 1.34 0 1 C0 0.67 0 0.34 0 0 Z " fill="#3339D6" transform="translate(193,103)"/>
<path d="M0 0 C7.75 -0.125 7.75 -0.125 10 1 C10 1.66 10 2.32 10 3 C7.03 3 4.06 3 1 3 C0.67 2.01 0.34 1.02 0 0 Z " fill="#1F7BF2" transform="translate(185,93)"/>
<path d="M0 0 C1.37342831 0.0689472 2.75002102 0.08467708 4.125 0.0625 C5.40375 0.041875 6.6825 0.02125 8 0 C7 2 7 2 5.07421875 2.7734375 C2.67420319 3.37835141 0.47485771 3.87885312 -2 4 C-4.5625 2.125 -4.5625 2.125 -6 0 C-2.25 -1.125 -2.25 -1.125 0 0 Z " fill="#2062D4" transform="translate(187,150)"/>
<path d="M0 0 C1.32 1.32 2.64 2.64 4 4 C3.01 4.495 3.01 4.495 2 5 C1.67 5.66 1.34 6.32 1 7 C0.01 6.34 -0.98 5.68 -2 5 C-3.65549531 4.61500109 -5.3222433 4.27206865 -7 4 C-6.1028125 3.566875 -6.1028125 3.566875 -5.1875 3.125 C-2.80672208 1.95257974 -2.80672208 1.95257974 0 0 Z " fill="#127DD1" transform="translate(126,87)"/>
<path d="M0 0 C0.66 1.32 1.32 2.64 2 4 C-0.6875 4.75 -0.6875 4.75 -4 5 C-6.875 3.0625 -6.875 3.0625 -9 1 C-7.700625 1.020625 -6.40125 1.04125 -5.0625 1.0625 C-3.70834367 1.08399454 -2.35243917 1.07148199 -1 1 C-0.67 0.67 -0.34 0.34 0 0 Z " fill="#3331CD" transform="translate(115,159)"/>
<path d="M0 0 C3.625 -0.1875 3.625 -0.1875 7 0 C6.67 0.99 6.34 1.98 6 3 C5.0409375 3.2165625 5.0409375 3.2165625 4.0625 3.4375 C1.79688294 3.80104993 1.79688294 3.80104993 0.75 6.0625 C0.5025 6.701875 0.255 7.34125 0 8 C-1.125 5.6875 -1.125 5.6875 -2 3 C-1.34 2.01 -0.68 1.02 0 0 Z " fill="#032736" transform="translate(174,150)"/>
<path d="M0 0 C2.31 0.66 4.62 1.32 7 2 C6.67 3.65 6.34 5.3 6 7 C4.68 7 3.36 7 2 7 C0.5393715 4.35261084 0 3.10551666 0 0 Z " fill="#0E2632" transform="translate(173,129)"/>
<path d="M0 0 C1.32 0 2.64 0 4 0 C5.484375 1.53125 5.484375 1.53125 6.75 3.5 C7.39195312 4.47453125 7.39195312 4.47453125 8.046875 5.46875 C8.36140625 5.9740625 8.6759375 6.479375 9 7 C8.34 7.66 7.68 8.32 7 9 C6.401875 8.21625 5.80375 7.4325 5.1875 6.625 C3.08914751 3.85425677 3.08914751 3.85425677 0 2 C0 1.34 0 0.68 0 0 Z " fill="#091638" transform="translate(128,96)"/>
<path d="M0 0 C4.70588235 0.70588235 4.70588235 0.70588235 6 2 C6.04092937 4.33297433 6.04241723 6.66705225 6 9 C4 8 4 8 3.0625 5.5625 C2.15452711 2.70136041 2.15452711 2.70136041 -1 1 C-0.67 0.67 -0.34 0.34 0 0 Z " fill="#000D11" transform="translate(178,91)"/>
<path d="M0 0 C6.0546875 -0.1953125 6.0546875 -0.1953125 8 0 C8.66 0.66 9.32 1.32 10 2 C9 3 9 3 6.71484375 3.09765625 C5.34005859 3.08025391 5.34005859 3.08025391 3.9375 3.0625 C3.01839844 3.05347656 2.09929687 3.04445312 1.15234375 3.03515625 C0.44207031 3.02355469 -0.26820312 3.01195312 -1 3 C-0.67 2.01 -0.34 1.02 0 0 Z " fill="#3936E4" transform="translate(128,160)"/>
<path d="M0 0 C-0.33 0.99 -0.66 1.98 -1 3 C-1.9590625 3.2165625 -1.9590625 3.2165625 -2.9375 3.4375 C-5.20311706 3.80104993 -5.20311706 3.80104993 -6.25 6.0625 C-6.4975 6.701875 -6.745 7.34125 -7 8 C-7.66 6.35 -8.32 4.7 -9 3 C-6.38997624 -0.48003168 -4.1689578 -0.27793052 0 0 Z " fill="#051C2E" transform="translate(193,103)"/>
<path d="M0 0 C2.97 0 5.94 0 9 0 C8.67 0.99 8.34 1.98 8 3 C5.36 3 2.72 3 0 3 C0 2.01 0 1.02 0 0 Z " fill="#3841EF" transform="translate(126,104)"/>
<path d="M0 0 C2.86724686 0.57344937 3.8614515 0.8614515 6 3 C1.545 4.485 1.545 4.485 -3 6 C-2.01 4.02 -1.02 2.04 0 0 Z " fill="#032935" transform="translate(174,91)"/>
<path d="M0 0 C0 0.66 0 1.32 0 2 C0.66 2.66 1.32 3.32 2 4 C1.01 4.66 0.02 5.32 -1 6 C-3 5 -5 4 -7 3 C-2.25 0 -2.25 0 0 0 Z " fill="#1371C4" transform="translate(116,88)"/>
<path d="M0 0 C3.3 0 6.6 0 10 0 C9.67 0.99 9.34 1.98 9 3 C2.84765625 2.4140625 2.84765625 2.4140625 1 2 C0.67 1.34 0.34 0.68 0 0 Z " fill="#3645EE" transform="translate(105,158)"/>
<path d="M0 0 C1.32 0.33 2.64 0.66 4 1 C4 2.32 4 3.64 4 5 C4.66 5 5.32 5 6 5 C6 4.34 6 3.68 6 3 C7.32 3.66 8.64 4.32 10 5 C10 5.33 10 5.66 10 6 C6.6875 6.25 6.6875 6.25 3 6 C1.0625 4.125 1.0625 4.125 0 2 C0 1.34 0 0.68 0 0 Z " fill="#BAD2E3" transform="translate(167,132)"/>
<path d="M0 0 C1.4540625 0.0309375 1.4540625 0.0309375 2.9375 0.0625 C2.9375 1.0525 2.9375 2.0425 2.9375 3.0625 C0.9575 3.0625 -1.0225 3.0625 -3.0625 3.0625 C-3.3925 4.0525 -3.7225 5.0425 -4.0625 6.0625 C-4.105221 4.39638095 -4.10313832 2.72867115 -4.0625 1.0625 C-3.0625 0.0625 -3.0625 0.0625 0 0 Z " fill="#C5C5F7" transform="translate(155.0625,118.9375)"/>
<path d="M0 0 C2.91517292 1.07401108 4.77810176 1.77810176 7 4 C6.01 4 5.02 4 4 4 C4 4.66 4 5.32 4 6 C3.34 6 2.68 6 2 6 C1.67 5.34 1.34 4.68 1 4 C0.01 3.34 -0.98 2.68 -2 2 C-1.34 1.34 -0.68 0.68 0 0 Z " fill="#B7BAE0" transform="translate(126,119)"/>
<path d="M0 0 C-1.32 0.33 -2.64 0.66 -4 1 C-4 1.66 -4 2.32 -4 3 C-2.02 3 -0.04 3 2 3 C2 3.33 2 3.66 2 4 C-4.625 4.25 -4.625 4.25 -8 2 C-8 1.34 -8 0.68 -8 0 C-5.13822943 -1.43088528 -3.06624227 -0.59991697 0 0 Z " fill="#043046" transform="translate(135,87)"/>
<path d="M0 0 C0 0.66 0 1.32 0 2 C-1.24176695 2.70226141 -2.49385599 3.38629109 -3.75 4.0625 C-4.79414063 4.63677734 -4.79414063 4.63677734 -5.859375 5.22265625 C-8.36140628 6.1312406 -9.5332355 5.88336837 -12 5 C-10.56705502 4.15885829 -9.12845595 3.32734313 -7.6875 2.5 C-6.88699219 2.0359375 -6.08648437 1.571875 -5.26171875 1.09375 C-3 0 -3 0 0 0 Z " fill="#1C0C5F" transform="translate(148,70)"/>
<path d="M0 0 C3.375 -0.1875 3.375 -0.1875 7 0 C7.66 0.99 8.32 1.98 9 3 C5.49064814 3 2.43515002 2.62457273 -1 2 C-0.67 1.34 -0.34 0.68 0 0 Z " fill="#000B0E" transform="translate(106,138)"/>
<path d="M0 0 C2.64 0.33 5.28 0.66 8 1 C8 1.33 8 1.66 8 2 C5.69 2.33 3.38 2.66 1 3 C0.67 4.32 0.34 5.64 0 7 C-0.99 6.67 -1.98 6.34 -3 6 C-2.34 6 -1.68 6 -1 6 C-0.67 4.02 -0.34 2.04 0 0 Z " fill="#07172D" transform="translate(127,165)"/>
<path d="M0 0 C1.65 0 3.3 0 5 0 C4.34 1.65 3.68 3.3 3 5 C2.01 5 1.02 5 0 5 C0 3.35 0 1.7 0 0 Z " fill="#2264DE" transform="translate(128,150)"/>
<path d="M0 0 C1.65 0 3.3 0 5 0 C5 1.32 5 2.64 5 4 C3.02 4 1.04 4 -1 4 C-0.67 2.68 -0.34 1.36 0 0 Z " fill="#1D82F5" transform="translate(197,146)"/>
<path d="M0 0 C2.97 0 5.94 0 9 0 C8.67 0.66 8.34 1.32 8 2 C5.93359375 2.4140625 5.93359375 2.4140625 3.4375 2.625 C2.61121094 2.69976562 1.78492188 2.77453125 0.93359375 2.8515625 C-0.02353516 2.92503906 -0.02353516 2.92503906 -1 3 C-0.67 2.01 -0.34 1.02 0 0 Z " fill="#D8F1F9" transform="translate(129,135)"/>
<path d="M0 0 C2.31 0 4.62 0 7 0 C7 0.99 7 1.98 7 3 C4.69 3 2.38 3 0 3 C0 2.01 0 1.02 0 0 Z " fill="#000408" transform="translate(153,130)"/>
<path d="M0 0 C0.598125 0.61875 1.19625 1.2375 1.8125 1.875 C4.00811144 4.13676954 4.00811144 4.13676954 7 6 C5.68 6.33 4.36 6.66 3 7 C1.68 5.35 0.36 3.7 -1 2 C-0.67 1.34 -0.34 0.68 0 0 Z " fill="#061027" transform="translate(165,150)"/>
<path d="M0 0 C2.88575819 0.39803561 3.82189513 0.79009069 5.75 3.0625 C6.1625 3.701875 6.575 4.34125 7 5 C6.67 5.66 6.34 6.32 6 7 C5.34 7 4.68 7 4 7 C4 5.68 4 4.36 4 3 C2.68 2.67 1.36 2.34 0 2 C0 1.34 0 0.68 0 0 Z " fill="#D8EDFD" transform="translate(167,130)"/>
<path d="M0 0 C0.99 0.33 1.98 0.66 3 1 C3 1.99 3 2.98 3 4 C1.02 4.66 -0.96 5.32 -3 6 C-1.125 1.125 -1.125 1.125 0 0 Z " fill="#CBD1F5" transform="translate(173,120)"/>
<path d="M0 0 C2.64 0 5.28 0 8 0 C8 0.99 8 1.98 8 3 C6.02 3 4.04 3 2 3 C2 2.34 2 1.68 2 1 C1.34 0.67 0.68 0.34 0 0 Z " fill="#F2F3F5" transform="translate(131,121)"/>
<path d="M0 0 C2.31 0.33 4.62 0.66 7 1 C6.67 1.99 6.34 2.98 6 4 C4.02 4 2.04 4 0 4 C0 2.68 0 1.36 0 0 Z " fill="#BAB8E6" transform="translate(141,118)"/>
<path d="M0 0 C6.15234375 0.5859375 6.15234375 0.5859375 8 1 C8.33 1.66 8.66 2.32 9 3 C6.36 3 3.72 3 1 3 C0.67 2.01 0.34 1.02 0 0 Z " fill="#383FED" transform="translate(115,104)"/>
<path d="M0 0 C0.99 1.32 1.98 2.64 3 4 C-1.00200378 5.60080151 -4.04556236 4.29279692 -8 3 C-8 2.67 -8 2.34 -8 2 C-5.36 1.34 -2.72 0.68 0 0 Z " fill="#2B45D0" transform="translate(115,100)"/>
<path d="M0 0 C1.32 0 2.64 0 4 0 C4.66 1.32 5.32 2.64 6 4 C4.02 4 2.04 4 0 4 C0 2.68 0 1.36 0 0 Z " fill="#1C7EED" transform="translate(99,146)"/>
<path d="M0 0 C1.134375 0.020625 2.26875 0.04125 3.4375 0.0625 C2.798125 0.289375 2.15875 0.51625 1.5 0.75 C-0.83443661 1.91500896 -0.83443661 1.91500896 -1.3125 4.6875 C-1.395 5.47125 -1.4775 6.255 -1.5625 7.0625 C-2.5525 7.3925 -3.5425 7.7225 -4.5625 8.0625 C-4.5625 7.4025 -4.5625 6.7425 -4.5625 6.0625 C-3.9025 6.0625 -3.2425 6.0625 -2.5625 6.0625 C-2.5625 4.7425 -2.5625 3.4225 -2.5625 2.0625 C-3.2225 1.7325 -3.8825 1.4025 -4.5625 1.0625 C-3.5625 0.0625 -3.5625 0.0625 0 0 Z " fill="#012B30" transform="translate(107.5625,139.9375)"/>
<path d="M0 0 C1.32 0.33 2.64 0.66 4 1 C3.01 3.31 2.02 5.62 1 8 C0.01 7.01 -0.98 6.02 -2 5 C-1.34 3.35 -0.68 1.7 0 0 Z " fill="#071B32" transform="translate(105,103)"/>
<path d="M0 0 C0.33 1.32 0.66 2.64 1 4 C3.31 4 5.62 4 8 4 C8 4.33 8 4.66 8 5 C0.375 6.25 0.375 6.25 -3 4 C-2.01 2.68 -1.02 1.36 0 0 Z " fill="#1178C7" transform="translate(173,86)"/>
<path d="M0 0 C2.475 0.99 2.475 0.99 5 2 C2.64561267 3.42944945 1.51967567 4.08661261 -1.25 3.625 C-1.8275 3.41875 -2.405 3.2125 -3 3 C-2.01 2.01 -1.02 1.02 0 0 Z " fill="#1499F7" transform="translate(118,87)"/>
<path d="M0 0 C2.475 0.495 2.475 0.495 5 1 C4.67 1.99 4.34 2.98 4 4 C2.68 4 1.36 4 0 4 C0 2.68 0 1.36 0 0 Z " fill="#343D64" transform="translate(166,122)"/>
<path d="M0 0 C0.33 1.32 0.66 2.64 1 4 C1.66 4 2.32 4 3 4 C2.34 5.32 1.68 6.64 1 8 C0.67 7.34 0.34 6.68 0 6 C-1.65 6 -3.3 6 -5 6 C-5 5.67 -5 5.34 -5 5 C-3.35 5 -1.7 5 0 5 C0 3.35 0 1.7 0 0 Z " fill="#013337" transform="translate(170,82)"/>
<path d="M0 0 C1.4540625 0.0309375 1.4540625 0.0309375 2.9375 0.0625 C2.9375 0.7225 2.9375 1.3825 2.9375 2.0625 C1.2875 2.7225 -0.3625 3.3825 -2.0625 4.0625 C-2.7225 3.0725 -3.3825 2.0825 -4.0625 1.0625 C-3.0625 0.0625 -3.0625 0.0625 0 0 Z " fill="#312BC1" transform="translate(188.0625,160.9375)"/>
<path d="M0 0 C0.99 0.99 1.98 1.98 3 3 C-0.69541586 3.95024979 -3.30458414 3.95024979 -7 3 C-4.66785852 1.79371992 -2.50357861 0.8345262 0 0 Z " fill="#352FD1" transform="translate(172,160)"/>
<path d="M0 0 C2.31 0 4.62 0 7 0 C7 0.99 7 1.98 7 3 C4.69 2.67 2.38 2.34 0 2 C0 1.34 0 0.68 0 0 Z " fill="#082435" transform="translate(185,135)"/>
<path d="M0 0 C-1.3125 1.5 -1.3125 1.5 -3 3 C-5.83967231 3 -8.23735711 2.59732819 -11 2 C-11 1.67 -11 1.34 -11 1 C-7.26562152 0.12132271 -3.83225427 -0.08912219 0 0 Z " fill="#2C3BC7" transform="translate(187,103)"/>
<path d="M0 0 C0.66 0 1.32 0 2 0 C2.33 2.64 2.66 5.28 3 8 C0.3333581 9.33332095 -1.16680303 8.67102033 -4 8 C-2.68 7.34 -1.36 6.68 0 6 C0 4.02 0 2.04 0 0 Z " fill="#012329" transform="translate(124,94)"/>
</svg>
